<svg width="173" height="56" viewBox="0 0 173 56" fill="none" xmlns="http://www.w3.org/2000/svg">
<path d="M5.28489 33.0095C5.66544 33.1874 5.27643 32.8034 6.06571 32.8909C6.53083 32.3008 6.63231 31.5046 6.82399 30.6349C7.07487 28.9803 7.16789 26.9276 9.24821 28.9464C9.34968 30.0279 8.94659 31.0133 8.72954 32.0919C8.9043 32.6453 8.6788 32.7695 9.53855 32.5888C10.4547 32.5324 11.3962 32.4589 12.2531 32.0185C12.7915 31.4312 12.5604 30.5305 13.1833 30.1634C13.189 30.073 13.0959 30.1267 13.079 30.0617C14.931 27.4725 13.3299 26.97 15.9712 27.2241C19.0663 27.9864 16.6336 31.3832 16.0839 33.3597C15.7118 34.9324 14.8408 36.3865 14.6153 38.1145C14.2601 38.2472 14.3701 38.8289 14.2207 39.1846C14.0769 39.3032 13.9839 39.5178 14.1699 39.7324C13.8599 39.8058 13.7697 40.2237 13.499 40.3903C12.9296 40.3677 13.1721 40.6472 12.4222 40.2886C12.0022 40.5286 11.9289 40.6049 11.3849 40.5004C11.2017 40.4524 11.3511 40.0938 11.0805 40.1192C9.93601 39.2213 10.1474 38.1258 10.2263 36.7564C10.4406 36.5446 10.2235 36.3216 10.5759 36.0251C10.7591 35.7597 11.3426 34.746 10.5702 35.0255C10.2207 35.0199 9.89936 34.8364 9.47089 35.0877C9.16082 35.0651 8.80283 35.1695 8.40255 35.2288C8.2165 35.1498 8.04455 35.3813 7.75139 35.3954C7.79086 35.5253 7.8867 35.6298 7.81059 35.867C7.55407 36.491 8.16576 37.1602 8.03892 37.9225C7.66401 38.3743 7.59072 38.9475 7.17634 39.4218C6.49418 40.1249 6.11645 40.9719 5.50476 41.5112C5.19751 42.2171 4.43641 42.6209 3.78808 43.132C3.66123 43.0501 3.32015 42.9456 3.20457 43.2054C3.03826 42.923 2.11368 43.0585 2.13905 42.7225C1.79796 42.6774 1.62037 42.1691 1.25392 41.9545C0.972037 41.6694 1.01714 41.0425 0.780355 40.7122C1.18345 40.0571 0.676057 39.1564 0.678876 38.4562C0.788812 37.7616 0.188395 37.0529 0.450549 36.2792C0.134837 36.1719 0.512564 36.138 0.402628 35.8585C0.267323 35.5818 0.174301 35.1272 0.391353 34.8815C0.0249012 34.3705 0.343432 33.6138 0.132018 33.0011C0.0981915 32.6707 0.340613 32.3488 0.109467 31.9648C-0.772836 29.0001 3.97412 30.889 3.7768 32.7752C3.8811 32.8429 3.87828 33.2862 4.09533 33.2778C4.30393 33.0914 5.23415 33.2637 5.29053 33.0067L5.28489 33.0095ZM4.36876 35.4491C4.38849 35.6834 4.0305 35.5536 3.96285 35.8105C4.0305 36.3131 3.80781 36.4881 4.23909 37.1263C4.09251 37.2138 4.36594 38.0919 4.583 37.4482C4.85924 37.1319 5.361 37.2477 5.73591 36.9484C6.13901 35.514 6.18974 35.1724 4.60273 35.5197C4.48997 35.6298 4.43923 35.5338 4.36876 35.4491Z" fill="white"/>
<path d="M43.6353 35.0651C43.5564 34.074 44.8305 33.4529 42.8206 33.9159C41.9383 34.043 41.4056 34.1785 40.5881 34.5145C40.5994 34.5964 40.6614 34.5907 40.729 34.5879C40.3513 35.099 40.5486 36.7395 39.92 37.1771C39.5789 37.3098 39.5085 37.8152 39.0715 37.979C38.7417 38.603 38.1075 38.7922 37.9243 39.5433C37.3239 40.5654 37.2055 40.4016 36.2668 39.9385C35.7763 39.7833 35.1815 39.4275 34.9983 38.7555C34.8912 37.3409 34.3781 35.8416 34.0089 34.4637C34.0822 33.9329 33.0758 28.7093 34.9673 29.8895C36.2583 30.4938 35.9962 32.0778 36.3739 33.114C36.1709 33.4754 38.2484 32.9136 38.4514 32.747C39.111 32.7639 39.1082 31.7898 39.142 31.1065C39.1984 30.3131 39.3957 29.6721 39.2971 28.7742C39.3478 27.7436 40.8361 28.4298 41.2843 28.986C41.6113 29.5902 41.2956 30.1719 41.2533 30.8495C41.0617 31.9507 40.5712 32.2783 42.0595 31.8406C42.4288 31.8858 43.1786 31.7954 43.4633 31.451C43.8326 31.5667 44.0976 31.3352 44.5148 31.2279C44.9207 30.8524 45.1293 30.5277 45.242 29.946C45.4985 29.7794 45.7128 29.658 45.6874 29.2994C45.8875 29.1836 45.9806 28.9211 46.0539 28.633C46.082 28.345 46.3978 28.3253 46.3273 27.9723C46.2061 27.5545 46.7952 26.9163 47.2321 27.2862C47.841 27.1535 48.5232 27.4302 48.8502 28.1022C49.4788 29.418 48.0496 30.4458 47.8946 31.8237C47.5056 32.4335 48.0947 32.5832 47.6409 33.2044C46.5894 34.667 46.2625 37.0755 45.5295 38.8712C44.994 40.012 45.803 39.4529 44.6275 40.7546C44.3146 40.6981 43.9651 40.7066 43.6381 40.5004C43.2406 40.0289 42.1497 39.2581 42.4514 38.5296C42.3583 38.1851 42.66 38.0242 42.8516 37.6204C42.846 37.2731 42.9588 37.0896 43.1504 36.7677C43.1166 36.2115 43.6015 35.7682 43.4943 35.1131C43.4943 35.0764 43.5197 35.0594 43.6268 35.0679L43.6353 35.0651ZM36.6783 35.3079C36.8982 35.4209 36.512 36.8948 37.0307 36.6943C37.6142 35.9573 38.5416 36.1155 38.7727 34.7432C38.068 34.9013 37.4479 35.0369 36.6783 35.3079Z" fill="white"/>
<path d="M30.4966 38.7243C30.5361 38.7469 30.4966 38.8232 30.5445 38.857C30.6432 38.4053 31.0745 38.953 31.3141 38.7978C31.8948 38.7469 32.6502 39.1535 33.2591 39.5629C33.6594 39.9356 34.3584 42.1973 33.5015 42.3554C31.7792 42.3159 30.2908 42.4881 28.5995 42.6999C28.1231 42.5983 28.2697 43.3211 28.0949 43.5978C27.8666 43.9649 27.8018 44.4787 27.5706 44.9136C27.3339 45.4077 27.1788 45.8369 27.0773 46.4722C26.6461 47.7089 26.4741 49.3183 26.0174 50.651C24.9181 51.947 23.8441 50.2247 23.4326 48.9851C23.6693 47.963 24.0922 47.0962 24.5065 46.0769C24.5432 45.6533 24.4784 44.9446 24.8984 44.6453C24.8589 44.2133 25.0055 43.7192 25.1802 43.2533C23.3311 43.3211 20.1711 45.45 18.6236 43.5724C18.1951 43.2251 17.496 42.5728 18.0598 42.0251C18.6574 41.7145 19.3452 41.8811 19.9935 41.4462C21.138 41.0368 21.8765 40.5201 23.0633 40.2999C23.4326 40.0542 23.3959 40.0486 23.9005 39.9667C24.3177 39.7549 24.5347 39.69 25.0788 39.6928C25.1915 39.6448 25.3409 39.3003 25.479 39.5996C26.102 39.4331 26.6094 39.1366 27.2775 39.0095C27.5594 39.3455 27.7539 38.8712 28.0978 38.9389C28.2584 38.9587 27.954 39.2806 28.4501 39.018C28.7574 38.97 28.8419 39.1563 29.1126 38.8316C29.5495 38.9643 29.9667 38.8345 30.4938 38.7272L30.4966 38.7243Z" fill="white"/>
<path d="M7.26661 43.0726C7.07775 43.0303 7.15386 42.5362 7.43292 42.4994C7.35963 42.4091 7.26097 42.426 7.21305 42.3413C7.52877 41.627 7.21024 39.8594 8.66477 40.5766C10.5055 40.9606 9.76694 42.3329 10.2377 42.6378C14.6577 42.6124 13.2482 42.09 14.6041 38.5324C14.7394 37.5018 15.5766 38.0015 16.084 38.4731C17.1975 39.3568 15.8049 40.7743 16.1122 41.8726C16.1291 41.9602 15.9741 41.9404 15.9205 42.107C15.6273 43.9988 15.1622 45.7635 14.9142 47.7851C14.3222 48.8779 13.9022 48.2651 13.1439 48.9174C12.8733 49.0727 12.7352 49.2336 12.3716 49.3042C12.0615 49.6289 11.8473 49.9847 11.3399 50.1315C11.2215 50.2868 11.0382 50.3433 10.8099 50.4365C10.7028 50.5381 10.404 50.8685 10.1954 50.7329C10.1362 51.1028 9.65419 51.3118 9.23981 51.436C8.82544 51.4106 8.95511 51.3456 8.55201 51.1621C8.34342 51.1932 8.35187 51.1932 8.27295 50.8685C8.20247 50.8402 8.24476 50.9249 8.15455 50.9701C7.83884 50.7442 7.62743 50.4675 7.32581 50.075C6.83251 49.8266 7.10312 49.0642 7.08339 48.5447C7.14258 47.675 6.89452 46.7828 7.13413 45.9075C6.96781 45.6392 7.02137 45.4444 7.17077 45.1875C6.9509 44.7498 7.08621 44.2726 7.15668 43.722C7.15104 43.5385 7.04392 43.242 7.27225 43.0726H7.26661ZM10.8494 46.6472C11.3032 46.0995 12.194 45.8934 12.7775 45.4021C12.9241 44.7837 12.9663 44.4788 12.2081 44.7893C11.9346 44.8797 11.5287 44.8402 11.2102 44.7893C11.0213 45.1734 10.5196 44.8402 10.2518 45.3512C9.9699 45.5941 10.0996 47.387 10.762 46.4439C10.8607 46.4948 10.762 46.5908 10.8494 46.6472Z" fill="white"/>
<path d="M26.4659 28.7092C26.6209 29.017 27.6639 28.5031 28.5377 28.5991C28.766 28.5765 28.9549 28.297 29.3044 28.4438C31.0606 29.1638 31.2156 30.457 30.3812 32.2217C30.291 32.8401 30.1416 33.4641 29.7583 34.0401C30.0063 34.3789 29.3467 35.1102 28.9464 35.1243C26.8689 35.2542 25.0762 37.3098 23.0719 38.2641C22.3785 38.1879 21.9529 37.6938 21.6259 37.1262C21.4314 37.033 21.3383 36.9088 21.3073 36.6575C21.0621 36.5728 21.0536 36.4796 21.0903 36.1352C21.2651 34.3337 21.0762 32.6198 21.2622 30.8156C21.3355 30.1775 21.3778 30.0448 22.1079 29.9008C22.3644 29.624 22.8549 29.641 23.1565 29.3982C23.8133 29.2796 24.4109 29.0876 25.141 28.9887C25.3834 28.9605 26.3418 29.0509 26.4715 28.7064L26.4659 28.7092ZM28.1684 30.8382C26.6604 31.2194 24.6336 30.9822 23.2524 31.6231C23.134 31.8998 23.2777 34.458 23.6329 34.4608C24.6308 34.1813 25.8513 33.5262 26.9 33.2523C27.8725 33.0405 28.0106 31.7954 28.1684 30.8353V30.8382Z" fill="white"/>
<path d="M41.4199 50.7132C40.9041 50.7894 40.5602 50.4477 40.0951 50.171C39.1789 49.7193 39.551 48.5927 39.5792 47.644C39.427 47.0199 39.4467 46.4919 39.4862 45.8482C39.303 45.7691 39.2551 44.298 39.4777 43.8915C39.5144 42.5051 38.432 40.7827 40.5235 40.9663C42.6969 42.7931 39.5482 43.4227 43.7737 42.539C44.3149 42.3018 44.8082 42.4458 45.3212 42.0872C45.5214 42.0731 45.7215 42.2425 45.8653 41.9432C46.1923 40.8646 46.632 39.8368 47.0041 38.6679C47.3818 38.3149 48.5545 39.0575 48.4671 39.5912C48.298 40.5879 47.9259 41.3559 47.6045 42.3893C47.5284 42.7733 47.4382 43.0783 47.5453 43.5131C47.2973 43.6712 47.162 43.9395 46.99 44.2331C46.4488 45.2439 47.9456 45.2185 45.262 47.0962C44.3149 47.9856 43.255 48.7875 42.2994 49.7362C41.9583 49.9649 41.9273 50.7499 41.4143 50.716L41.4199 50.7132ZM45.2198 44.1653C44.064 44.4336 42.4347 44.4788 41.496 45.1338C41.5073 45.2016 41.6032 45.1677 41.5919 45.2411C41.2226 45.6279 41.5496 46.4072 41.5947 46.9832C42.291 46.6726 42.8181 46.1559 43.5003 45.6985C43.9795 45.4783 44.2952 45.2919 44.6532 44.874C44.9632 44.6905 45.1718 44.6284 45.2198 44.1653Z" fill="white"/>
<path d="M57.2166 38.1766C57.1996 38.0411 57.1743 37.8858 57.3603 37.818C58.2426 36.6208 58.7754 35.2373 59.5026 33.8453C59.6041 33.3625 59.9255 32.7808 60.1679 32.1907C60.43 31.4848 60.7852 30.9031 60.9882 30.0645C61.0276 29.7003 60.9093 29.2909 61.1883 28.9154C61.7408 28.3845 61.6985 28.8137 62.2679 28.8928C63.1897 28.9097 64.0551 29.6382 63.8127 30.7055C62.8825 33.5008 61.9494 36.2171 60.7176 38.8543C59.9255 41.7145 59.0375 42.6237 56.8135 39.8566C56.8952 39.5827 56.5879 39.3823 56.6979 39.0717C56.9431 38.8881 56.8416 38.219 57.2137 38.1766H57.2166Z" fill="white"/>
<path d="M57.7495 45.4727C57.8876 45.6986 58.7473 45.2327 58.9785 45.1762C59.7199 45.0435 60.4866 44.8007 61.1885 44.62C61.6254 44.6567 61.6451 44.3065 62.1046 44.1908C62.6543 44.1597 63.2378 44.3404 63.6944 44.716C64.2131 44.891 65.0052 46.5287 64.1088 46.7207C62.9362 47.051 61.6621 47.5649 60.4246 47.7597C59.4464 48.2793 58.1695 48.3866 57.0617 48.9767C56.729 48.9767 56.4753 49.2393 56.1427 49.4087C55.7481 49.4228 55.0631 49.5188 54.8009 49.0755C53.1942 47.9546 53.5494 47.4012 53.0222 45.4247C52.8588 44.3658 52.1625 43.3296 52.295 42.1804C52.9377 41.8952 53.758 42.3329 54.1554 42.8891C55.0941 43.6007 55.2181 46.2124 55.8778 46.1051C56.1512 45.9019 57.5832 45.8143 57.7495 45.4698V45.4727Z" fill="white"/>
<path d="M53.4198 31.1545C53.4367 31.2335 53.4029 31.338 53.5297 31.3521C54.3303 32.6368 53.2365 32.3855 55.0011 33.3173C57.0561 34.8561 54.4289 38.0072 52.8785 38.7583C51.5452 39.8199 50.071 38.7978 49.8765 37.242C50.0625 36.203 50.3754 35.1357 50.8518 34.1644C51.1224 33.2806 51.3846 32.7187 51.7905 31.8011C52.3232 30.9258 52.295 30.8326 53.417 31.1545H53.4198ZM51.5509 37.4792C52.1823 37.2844 52.7404 36.8552 53.2478 36.3074C53.9243 35.2656 54.6601 34.6754 53.0505 33.93C52.5262 34.5427 52.2246 35.3079 51.875 36.1776C51.6608 36.4966 51.5452 37.0077 51.5509 37.4792Z" fill="white"/>
<path d="M119.694 34.441C116.393 33.4895 120.038 21.1873 117.813 23.2824C116.212 22.9012 114.431 25.6203 111.491 23.864C111.432 23.6946 111.327 23.5986 111.136 23.6664C108.069 21.9271 110.27 18.8042 113.171 18.4033C113.557 18.1378 114.039 17.9261 114.608 17.7793C118.887 16.6837 123.668 15.6503 128.15 15.3284C128.892 15.3792 129.748 14.9077 130.648 15.0799C133.159 14.7581 142.622 14.4475 141.607 18.615C141.681 19.0414 141.123 18.8635 140.824 19.1684C139.465 20.8598 139.445 20.8456 137.134 21.0659C136.018 20.9925 135.992 20.7948 135.722 22.04C135.008 22.6527 134.405 23.5421 134.039 24.5106C133.34 26.0156 130.56 31.9732 131.961 32.8994C137.089 34.3055 141.097 35.0283 137.607 40.9352C136.15 44.4844 135.257 47.5903 130.777 46.6529C130.642 47.1272 129.168 47.1329 128.486 47.0284C128.269 47.1922 127.722 47.5028 127.522 47.0454C127.403 47.1414 127.338 47.4322 127.085 47.2317C126.865 47.4971 126.6 47.3531 126.346 47.3136C126.022 47.404 125.272 48.1607 125.021 47.7004C124.903 48.3498 123.409 48.0054 123.088 48.7564C122.704 48.5785 122.603 48.5051 122.298 48.8807C122.115 48.7367 122.05 48.6265 121.796 48.9287C120.801 48.9964 121.72 49.3974 120.486 49.9706C123.555 50.6341 126.916 49.451 130.563 49.2647C134.008 49.6459 136.277 48.2369 138.961 50.8741C139.507 51.515 139.054 51.9047 139.206 52.7122C139.941 53.7118 137.675 53.7993 136.875 53.6101C133.943 52.8026 131.056 53.4915 128.057 54.0449C126.524 54.3188 125.083 54.6774 123.595 54.8101C123.034 54.9795 122.442 55.2421 121.988 54.9654C121.295 55.3635 120.398 55.581 119.493 55.3551C118.715 55.6487 116.283 56.6257 115.86 55.3918C115.316 55.6064 115.189 55.0304 114.944 54.7847C114.403 54.7367 114.91 53.5988 114.312 53.3306C112.632 51.7183 113.76 49.7136 114.132 47.6722C115.381 46.1955 115.939 43.595 117.61 42.6265C118.961 41.6157 120.393 41.5874 122.264 41.4321C123.42 40.9239 124.756 41.0143 126.312 40.89C127.152 40.5568 128.243 40.314 129.199 40.2095C129.96 40.9521 132.483 39.1366 130.493 38.6368C125.709 38.106 121.061 40.2321 116.37 40.9521C115.017 40.5371 113.602 40.0317 113.236 38.3573C112.274 36.5615 118.4 35.2147 119.685 34.441H119.694ZM122.921 33.258C123.127 33.4443 123.378 33.1846 123.555 33.3766C129.238 32.5521 125.362 33.5883 127.093 28.8928C128.302 26.5803 128.584 24.2593 129.049 21.7943C129.554 20.024 124.469 21.7689 123.307 21.8423C123.516 25.6231 122.484 29.4236 122.921 33.258Z" fill="white"/>
<path d="M96.5933 27.3059C96.7399 27.1845 96.7681 27.032 96.909 26.9925C97.2416 27.3257 98.0647 26.9784 98.7666 26.9784C99.0316 26.3713 99.3727 26.7045 100.108 26.8062C103.079 27.1535 105.825 25.4876 109.132 25.6993C109.786 25.3944 110.595 25.4791 111.358 25.6005C115.406 27.6645 117.284 30.8551 112.235 33.3766C110.048 33.4669 107.815 33.4584 105.763 33.961C103.984 33.8199 101.701 33.9695 100.92 35.7709C100.689 36.9032 99.7927 37.3295 99.4178 38.555C98.4988 41.1074 97.5602 43.9988 97.2275 47.0228C96.1366 49.4228 98.279 51.3089 94.9217 51.8059C93.563 53.1894 90.5468 50.7216 90.9443 48.5927C92.1931 44.7922 92.0324 40.6416 92.1508 36.5813C89.3714 36.4909 85.8168 38.73 82.7978 39.3399C80.6216 40.1729 78.3017 41.7258 75.8465 41.5112C74.3328 41.2966 73.5294 39.3004 72.7993 37.9366C72.7852 37.2985 71.2264 36.7789 72.1284 35.9827C74.2989 34.441 76.9881 33.882 79.3813 32.6114C82.9979 31.3718 86.9641 29.7285 90.4566 29.0283C91.5475 28.3704 93.0049 27.7888 94.434 27.7775C95.0796 27.4866 95.8435 26.9163 96.5933 27.3088V27.3059Z" fill="white"/>
<path d="M99.3475 16.6781C101.087 16.9378 103.99 16.9011 105.605 19.0385C106.192 19.6343 105.174 20.3543 105.769 21.1054C105.028 21.4019 104.359 21.752 103.663 22.3506C97.8761 22.6414 92.8247 24.0306 87.8156 26.8118C82.0144 26.4362 84.385 17.9628 85.6507 14.4644C85.1405 14.0804 85.5915 13.5044 85.3886 12.7957C84.7459 12.1124 84.9347 11.2738 84.5429 10.3448C83.9594 9.14482 86.829 7.79799 87.762 6.89728C88.292 7.0441 88.8078 6.36645 89.3885 6.26198C89.9072 6.64598 90.4315 5.79327 91.015 5.94009C92.7345 5.19185 94.4399 4.97444 96.3032 4.24032C97.2644 3.55984 98.609 3.77161 99.869 3.51184C100.202 4.06243 100.709 4.23749 101.408 4.46055C102.406 4.9575 103.139 6.18857 103.708 7.12034C103.593 7.75846 103.142 7.65117 103.666 8.57164C103.739 8.92459 103.356 8.902 103.023 9.02341C102.888 9.66153 102.243 10.0427 101.56 10.503C99.1136 11.2568 96.9572 10.7119 94.5893 12.0248C93.5351 12.3919 93.1235 13.4366 93.0869 14.6338C92.416 15.2719 92.3511 16.0202 91.9875 17.0762C89.9664 20.1369 91.4491 19.208 93.91 18.5924C95.0883 18.0701 96.6696 18.0192 97.8676 17.2597C98.3581 17.127 99.1728 17.4941 99.3475 16.6752V16.6781Z" fill="white"/>
<path d="M129.982 5.44031C129.687 4.76266 129.072 4.72031 128.531 4.50854C128.271 4.49442 126.87 4.45772 127.104 3.88736C127.502 3.39324 127.22 2.60829 126.901 1.92782C125.368 -0.299966 123.849 -1.01997 122.758 2.07746C121.114 4.48878 120.139 7.8488 121.114 10.8474C123.209 15.9383 131.561 10.4493 129.982 5.44314V5.44031ZM126.532 9.13352C126.372 9.2634 126.194 9.36222 126.005 9.44128C125.709 9.58811 125.159 9.84505 124.697 9.44693C124.528 9.3114 124.308 9.06011 124.229 8.69587C124.119 8.47563 123.998 7.89963 124.255 7.45915C124.266 7.41115 124.218 7.3688 124.339 7.15986C124.432 6.85774 124.782 6.49632 125.289 6.45679C125.283 6.45679 125.289 6.45679 125.382 6.4455C126.808 6.10949 127.801 8.17916 126.532 9.13634V9.13352Z" fill="white"/>
<path d="M150.248 50.3715C150.2 50.1992 149.954 50.1315 149.785 50.0044C149.405 49.2421 149.647 49.6712 149.65 49.0162C149.066 48.2256 149.797 48.1465 149.455 48.0251C149.089 47.1554 149.34 47.2486 149.571 46.6162C149.01 46.4016 149.625 46.4439 149.45 46.0627C149.174 45.882 149.261 45.8707 149.478 45.6618C149.222 45.4444 149.374 45.1592 149.467 44.8599C149.351 44.586 149.247 44.4194 149.571 44.2133C149.117 44.0693 149.32 43.9648 149.399 43.6712C149.642 43.4368 149.05 43.2985 149.253 43.0274C149.549 42.7394 149.315 42.8891 149.233 42.6462C149.568 42.3752 149.191 41.9742 149.388 41.6382C149.331 41.5592 149.188 41.5112 149.196 41.3869C149.76 40.3705 149.219 41.2203 149.238 40.2406C149.134 39.9074 149.281 39.5968 149.399 39.289C149.222 39.0575 149.413 39.1281 149.619 39.097C149.689 38.9784 149.21 38.9079 149.427 38.7836C149.551 38.617 149.475 38.49 149.447 38.3403C149.509 38.0806 149.667 37.8349 149.625 37.5497C149.743 37.1798 149.605 36.8213 149.515 36.4655C149.78 36.1634 149.856 34.7205 150.417 34.8024C150.234 34.6132 151.15 34.153 151.316 34.3139C151.477 34.2942 151.53 34.0881 151.728 34.0937C152.139 34.1191 152.63 34.0824 152.999 33.9412C153.486 34.0909 153.286 33.8452 154.264 33.8593C155.006 33.8481 155.787 33.8368 156.59 33.7492C156.714 33.7492 156.689 33.8819 156.847 33.817C157.382 33.6589 157.957 33.8904 158.555 33.8001C162.665 33.5177 166.749 34.0288 169.351 34.2716C170.887 34.3281 171.989 34.5794 172.037 35.9008C172.35 36.5784 172.925 38.0721 172.736 38.2246C172.734 38.4759 172.891 38.9559 172.641 39.241C172.48 39.5883 172.748 40.009 172.435 40.3055C172.641 40.4439 172.525 40.6641 172.311 40.7008C172.364 41.4519 172.212 42.2876 172.167 43.0839C171.93 43.3267 172.364 43.3013 172.339 43.5808C172.147 43.8519 172.201 44.1032 172.26 44.411C172.015 44.9051 172.311 44.7526 172.156 45.114C172.108 45.3879 172.139 45.5601 171.975 45.8312C171.992 46.0825 172.054 46.2717 171.891 46.5201C172.015 46.7573 171.987 46.9663 171.882 47.2345C171.818 47.3954 172.077 47.5818 171.832 47.6891C172.054 47.7512 171.586 48.6378 171.569 48.8411C171.905 48.5616 171.874 49.4792 171.806 49.5696C171.944 49.6345 171.947 49.6825 171.846 49.8576C171.803 49.9282 171.846 50.0129 171.688 50.0185C171.228 50.0524 171.753 50.1908 171.29 50.4138C170.721 50.6087 171.228 50.5719 170.715 50.6934C170.679 50.9418 170.183 51.196 169.906 51.292C169.729 51.3428 169.486 51.3795 169.227 51.3061C169.055 51.3823 168.861 51.4247 168.638 51.4303C168.514 51.2016 167.705 51.4077 167.406 51.34C166.459 51.0604 166.527 51.563 166.295 51.1677C166.256 51.1677 166.214 51.1903 166.149 51.2214C165.884 51.3258 165.904 51.0802 165.571 51.2807C165.089 51.2722 164.646 51.1762 164.114 51.1225C162.67 51.2863 162.549 51.0491 161.475 51.0858C160.804 51.1338 161.157 51.179 160.629 51.0745C160.311 51.275 160.711 50.9729 159.866 51.1564C157.937 51.0039 158.682 51.2468 158.05 51.0463C157.687 51.323 157.106 50.9785 156.601 51.1028C156.023 51.1451 155.395 51.2468 154.882 51.0491C154.738 51.1141 154.775 51.2496 154.51 51.0915C154.101 51.3089 154.186 51.0632 153.844 51.083C153.478 51.3682 152.026 51.3089 151.696 51.227C151.491 51.0632 151.254 51.0124 151.048 50.8345C150.907 50.8204 150.814 50.8628 150.696 50.7216C150.428 50.3856 150.572 50.2924 150.242 50.3686L150.248 50.3715Z" fill="#B01E23"/>
<path d="M164.759 40.6274C164.804 40.5963 164.846 40.5766 164.86 40.5342C164.88 40.4721 164.911 40.4382 164.976 40.4552C164.993 40.4608 165.013 40.441 165.021 40.4241C165.044 40.3563 165.097 40.3309 165.151 40.314C165.317 40.2632 165.45 40.1163 165.616 40.0881C165.853 40.0486 166.067 39.9385 166.295 39.8679C166.377 39.8425 166.464 39.8368 166.54 39.8001C166.56 39.7916 166.6 39.7888 166.591 39.7606C166.56 39.6589 166.619 39.6533 166.684 39.6335C166.758 39.6109 166.777 39.529 166.755 39.4443C166.729 39.3455 166.735 39.2354 166.69 39.1394C166.608 39.1704 166.515 39.1817 166.453 39.2608C166.445 39.2721 166.428 39.2749 166.414 39.2777C166.25 39.3003 166.101 39.3625 165.968 39.4669C165.96 39.4726 165.949 39.4782 165.943 39.4754C165.799 39.4387 165.63 39.4839 165.52 39.3455C165.407 39.2043 165.303 39.0575 165.185 38.9192C165.058 38.7723 165.125 38.5521 165.241 38.442C165.303 38.3827 165.368 38.3177 165.461 38.2951C165.506 38.2839 165.554 38.2556 165.596 38.2161C165.661 38.154 165.731 38.0975 165.824 38.154C165.841 38.1653 165.864 38.1596 165.878 38.1455C166.019 38.01 166.205 38.0015 166.371 37.9422C166.38 37.9394 166.394 37.945 166.4 37.9422C166.509 37.8519 166.625 37.7728 166.763 37.7417C166.78 37.7389 166.803 37.705 166.805 37.6853C166.825 37.4933 166.949 37.3097 166.834 37.1036C166.805 37.0556 166.82 36.9765 166.803 36.9116C166.791 36.8664 166.78 36.8269 166.746 36.793C166.659 36.6914 166.645 36.5897 166.712 36.4711C166.8 36.3158 166.907 36.1888 167.099 36.2142C167.203 36.2283 167.313 36.1831 167.406 36.2904C167.434 36.3243 167.516 36.313 167.569 36.3102C167.657 36.3045 167.758 36.2961 167.815 36.3497C167.879 36.409 167.922 36.5078 167.95 36.6067C167.987 36.7337 167.995 36.8721 168.037 36.9963C168.08 37.1177 168.102 37.2391 168.096 37.369C168.096 37.4509 168.161 37.4791 168.206 37.513C168.308 37.5864 168.429 37.5949 168.548 37.5836C168.717 37.5695 168.889 37.5751 169.058 37.5723C169.269 37.5723 169.478 37.6373 169.684 37.6824C169.746 37.6966 169.796 37.7558 169.861 37.7728C169.892 37.7813 169.909 37.8236 169.912 37.8603C169.92 37.9479 169.971 38.0071 170.016 38.0721C170.137 38.2443 170.188 38.4448 170.205 38.6594C170.211 38.7441 170.168 38.8119 170.12 38.8655C170.016 38.9784 170.005 39.1281 169.94 39.2834C170.092 39.2834 170.219 39.2777 170.346 39.2749C170.619 39.2721 170.893 39.2636 171.169 39.2749C171.575 39.4697 171.104 40.0599 170.882 40.0938C170.822 40.1022 170.76 40.0768 170.698 40.0768C170.467 40.0768 170.239 40.105 170.008 40.1022C169.898 40.1022 169.785 40.1248 169.675 40.1446C169.576 40.1615 169.52 40.2575 169.461 40.3281C169.368 40.441 169.292 40.5738 169.232 40.7149C169.182 40.8335 169.111 40.9436 169.049 41.0566C169.041 41.0735 169.03 41.0905 169.015 41.1074C168.897 41.2458 168.925 41.4011 168.993 41.5451C169.03 41.6185 169.055 41.706 169.117 41.7653C169.134 41.7822 169.156 41.8133 169.151 41.8302C169.114 41.9573 169.201 41.9884 169.272 42.0335C169.303 42.0561 169.345 42.0702 169.334 42.1239C169.326 42.1747 169.286 42.186 169.244 42.2086C169.058 42.3102 168.875 42.2453 168.691 42.2029C168.57 42.1747 168.446 42.1775 168.325 42.1578C168.212 42.1408 168.122 42.2481 168.142 42.3695C168.153 42.4429 168.133 42.5107 168.142 42.5841C168.17 42.7648 168.237 42.8411 168.407 42.8439C168.477 42.8439 168.548 42.8411 168.618 42.8382C168.736 42.8354 168.852 42.8495 168.97 42.8637C169.218 42.8891 169.466 42.9117 169.715 42.9371C169.779 42.9455 169.841 42.9681 169.906 42.9851C169.948 42.9964 169.948 43.0331 169.951 43.0698C169.957 43.1601 169.957 43.2561 170.044 43.3126C170.058 43.3211 170.07 43.3465 170.07 43.3634C170.061 43.4566 170.118 43.499 170.18 43.5441C170.239 43.5865 170.233 43.6147 170.171 43.6571C170.081 43.7164 169.982 43.722 169.884 43.7192C169.672 43.7192 169.464 43.6938 169.252 43.6994C169.128 43.7023 169.007 43.6797 168.886 43.6684C168.641 43.643 168.398 43.643 168.159 43.7418C168.173 43.8208 168.175 43.8942 168.159 43.979C168.144 44.0524 168.153 44.1427 168.178 44.2218C168.218 44.346 168.212 44.4674 168.144 44.5832C168.111 44.6368 168.13 44.6792 168.184 44.6736C168.432 44.6453 168.68 44.6933 168.928 44.6594C168.956 44.6566 168.984 44.6538 169.013 44.6594C169.17 44.6877 169.331 44.6566 169.489 44.6623C169.658 44.6707 169.827 44.6594 169.996 44.6736C170.177 44.6905 170.354 44.6848 170.535 44.6961C170.65 44.7018 170.752 44.7611 170.865 44.7667C170.91 44.7696 170.935 44.8147 170.935 44.8684C170.935 44.9785 170.972 45.0547 171.048 45.1338C171.13 45.2157 171.183 45.3343 171.223 45.45C171.245 45.5178 171.225 45.5912 171.166 45.6251C171.048 45.6929 170.929 45.7719 170.783 45.7663C170.636 45.7606 170.49 45.7663 170.343 45.7663C170.197 45.7663 170.053 45.7296 169.906 45.738C169.757 45.7465 169.607 45.7296 169.455 45.7324C169.247 45.7324 169.041 45.7352 168.835 45.707C168.821 45.707 168.807 45.7013 168.793 45.707C168.646 45.755 168.497 45.7013 168.347 45.7126C168.232 45.7211 168.223 45.7183 168.173 45.8623C168.161 45.8905 168.136 45.8933 168.122 45.9131C168.099 45.9413 168.068 45.9667 168.122 45.9978C168.125 45.9978 168.13 46.0034 168.133 46.0063C168.037 46.122 168.159 46.2689 168.085 46.3903C168.077 46.4044 168.071 46.4185 168.065 46.4298C168.046 46.4665 168.015 46.4806 168.071 46.5371C168.142 46.6077 168.096 46.7234 168.043 46.8025C168.015 46.8449 168.02 46.8618 168.032 46.907C168.065 47.0312 168.088 47.1611 168.001 47.2712C167.927 47.3644 167.972 47.4689 167.947 47.5649C168.023 47.675 167.933 47.7823 167.936 47.8896C167.936 47.9206 167.925 47.9545 167.936 47.9912C167.947 48.0251 167.956 48.0618 167.919 48.0872C167.896 48.1042 167.891 48.1268 167.902 48.155C167.939 48.2453 167.916 48.3272 167.891 48.4204C167.871 48.4995 167.809 48.5701 167.832 48.6632C167.837 48.6886 167.817 48.7169 167.798 48.7282C167.688 48.7931 167.631 48.9145 167.55 49.0077C167.519 49.0444 167.474 49.0218 167.457 49.0557C167.42 49.1263 167.313 49.1376 167.321 49.2477C167.321 49.2703 167.293 49.307 167.271 49.3183C167.163 49.3719 167.107 49.4821 167.025 49.5639C166.96 49.6289 166.867 49.6599 166.786 49.7023C166.769 49.7108 166.752 49.6938 166.738 49.6825C166.622 49.595 166.543 49.4736 166.487 49.3409C166.462 49.2816 166.478 49.2053 166.47 49.1376C166.453 48.9682 166.464 48.7988 166.402 48.6322C166.357 48.5079 166.374 48.3611 166.369 48.2284C166.366 48.1578 166.318 48.0985 166.343 48.0195C166.36 47.9602 166.385 47.8896 166.326 47.8331C166.36 47.7371 166.326 47.6326 166.352 47.5451C166.383 47.4322 166.354 47.3192 166.377 47.2091C166.38 47.1893 166.363 47.1639 166.371 47.1498C166.456 47.0086 166.411 46.8618 166.397 46.715C166.391 46.6585 166.383 46.602 166.397 46.5456C166.433 46.3733 166.366 46.1983 166.402 46.0232C166.414 45.9696 166.374 45.9272 166.309 45.9611C166.261 45.9865 166.213 45.9667 166.163 45.9554C166.064 45.9329 165.96 45.9554 165.858 45.9809C165.762 46.0034 165.672 46.0289 165.568 46.0063C165.495 45.9893 165.424 46.0627 165.342 46.0712C165.278 46.0797 165.216 46.1531 165.145 46.0853C165.094 46.1503 165.021 46.0994 164.965 46.122C164.807 46.1842 164.638 46.1672 164.48 46.2124C164.404 46.235 164.336 46.1813 164.263 46.2124C164.195 46.2378 164.13 46.2322 164.06 46.2265C163.989 46.2209 163.908 46.2604 163.826 46.2576C163.781 46.2576 163.733 46.2547 163.713 46.2096C163.648 46.0543 163.521 45.9357 163.49 45.7634C163.459 45.5912 163.575 45.3907 163.73 45.354C163.834 45.3286 163.941 45.2976 164.046 45.2721C164.15 45.2439 164.257 45.2383 164.359 45.21C164.474 45.1761 164.587 45.1197 164.708 45.114C164.796 45.1112 164.877 45.0632 164.965 45.0886C164.984 45.0943 165.013 45.0886 165.032 45.0801C165.213 45.0096 165.407 45.0237 165.591 44.9559C165.7 44.9136 165.833 44.9164 165.954 44.9023C166.078 44.8853 166.188 44.8317 166.309 44.8063C166.383 44.7921 166.408 44.699 166.411 44.6397C166.414 44.4561 166.411 44.2698 166.425 44.0863C166.428 44.0552 166.321 43.9959 166.281 44.0157C166.185 44.0665 166.078 44.0693 165.985 44.1173C165.788 44.2133 165.585 44.2952 165.373 44.3545C165.345 44.363 165.32 44.3743 165.297 44.3884C165.227 44.4335 165.148 44.4505 165.069 44.4618C164.883 44.4928 164.75 44.4053 164.66 44.2331C164.624 44.1625 164.593 44.0863 164.533 44.0326C164.522 44.0241 164.508 44.01 164.508 43.9987C164.517 43.8971 164.471 43.7926 164.533 43.691C164.587 43.6006 164.641 43.5272 164.753 43.5385C164.784 43.5413 164.818 43.5244 164.849 43.5102C165.03 43.4312 165.218 43.3917 165.402 43.3352C165.489 43.307 165.579 43.2872 165.653 43.2307C165.703 43.1884 165.762 43.2081 165.813 43.194C165.951 43.1573 166.089 43.0952 166.222 43.0895C166.377 43.0839 166.425 43.002 166.47 42.8721C166.49 42.8157 166.498 42.7931 166.445 42.7648C166.425 42.7535 166.408 42.7168 166.436 42.7027C166.546 42.6406 166.414 42.5926 166.428 42.5248C166.439 42.4797 166.36 42.5022 166.321 42.5022C166.211 42.4966 166.126 42.57 166.027 42.6039C165.878 42.6547 165.717 42.6914 165.602 42.8157C165.509 42.9145 165.396 42.9625 165.283 43.0189C165.261 43.0302 165.238 43.0415 165.216 43.0302C165.106 42.9738 164.97 42.9597 164.906 42.8326C164.852 42.7253 164.759 42.6547 164.717 42.5333C164.635 42.2989 164.765 42.1662 164.917 42.0928C164.973 42.0646 165.027 42.0392 165.072 41.9912C165.14 41.9206 165.23 41.8924 165.311 41.8613C165.585 41.7596 165.847 41.6128 166.14 41.5705C166.264 41.5507 166.383 41.4829 166.509 41.466C166.535 41.4632 166.56 41.4462 166.563 41.4208C166.577 41.2796 166.619 41.1385 166.563 40.9973C166.546 40.9549 166.529 40.9323 166.49 40.9549C166.402 41.0086 166.281 40.9945 166.216 41.1018C166.202 41.1272 166.163 41.1215 166.14 41.1328C166.073 41.1695 165.988 41.1723 165.937 41.2542C165.903 41.3079 165.839 41.3361 165.779 41.3474C165.622 41.3728 165.478 41.4462 165.331 41.5027C165.238 41.5394 165.137 41.5959 165.044 41.4914C165.035 41.4829 165.018 41.4773 165.004 41.4773C164.908 41.4745 164.863 41.418 164.827 41.3192C164.793 41.2232 164.751 41.1328 164.722 41.034C164.694 40.9352 164.638 40.8392 164.697 40.7319C164.643 40.7149 164.621 40.746 164.612 40.7714C164.579 40.8646 164.502 40.8872 164.429 40.9295C164.328 40.986 164.209 41.0199 164.139 41.13C164.116 41.1667 164.077 41.178 164.046 41.1978C163.905 41.2796 163.792 41.3982 163.677 41.5168C163.614 41.5818 163.603 41.6636 163.629 41.7512C163.66 41.8528 163.696 41.9545 163.626 42.0561C163.62 42.0646 163.62 42.0759 163.62 42.0844C163.657 42.4119 163.603 42.7366 163.603 43.0641C163.603 43.0698 163.603 43.0754 163.603 43.0782C163.626 43.194 163.609 43.3069 163.6 43.4227C163.584 43.6119 163.6 43.8039 163.589 43.9931C163.578 44.1794 163.561 44.3686 163.533 44.555C163.479 44.9051 163.414 45.2552 163.42 45.611C163.423 45.834 163.395 46.0486 163.369 46.2689C163.341 46.506 163.352 46.746 163.341 46.986C163.33 47.2373 163.304 47.4886 163.293 47.7399C163.288 47.9376 163.242 48.1352 163.271 48.3329C163.285 48.4204 163.257 48.5051 163.251 48.5898C163.248 48.6491 163.172 48.7112 163.118 48.7564C163.062 48.8016 163.025 48.8524 163.003 48.9258C162.986 48.9795 162.958 49.0218 162.91 49.0557C162.831 49.1094 162.769 49.1828 162.752 49.2901C162.746 49.3352 162.735 49.3889 162.687 49.403C162.634 49.4171 162.588 49.3889 162.549 49.3437C162.377 49.1291 162.295 48.8778 162.29 48.5926C162.29 48.4769 162.301 48.3611 162.276 48.2425C162.25 48.1211 162.301 47.9997 162.321 47.8811C162.346 47.7371 162.369 47.5903 162.354 47.4435C162.343 47.339 162.374 47.2402 162.377 47.1385C162.38 47.0002 162.363 46.8618 162.354 46.7234C162.343 46.5484 162.377 46.379 162.374 46.2067C162.374 45.93 162.391 45.6561 162.433 45.3823C162.476 45.114 162.473 44.8373 162.495 44.5663C162.501 44.4957 162.518 44.4251 162.532 44.3545C162.566 44.1823 162.532 44.0072 162.555 43.8321C162.577 43.6317 162.597 43.4284 162.594 43.2222C162.594 43.1771 162.594 43.1291 162.588 43.0867C162.572 42.9935 162.577 42.9004 162.605 42.8185C162.636 42.7253 162.605 42.6378 162.628 42.5474C162.634 42.5192 162.634 42.4712 162.594 42.4542C162.555 42.4401 162.535 42.474 162.512 42.4994C162.301 42.7394 162.073 42.9653 161.867 43.2109C161.661 43.4538 161.469 43.7079 161.28 43.9648C161.078 44.2415 160.875 44.5211 160.705 44.826C160.635 44.9559 160.548 45.083 160.511 45.2326C160.5 45.2721 160.471 45.2919 160.438 45.2891C160.398 45.2863 160.381 45.2439 160.384 45.21C160.39 45.1281 160.395 45.0434 160.415 44.9672C160.452 44.8232 160.494 44.682 160.556 44.5465C160.68 44.2754 160.79 43.9959 160.92 43.7277C161.021 43.5187 161.14 43.3182 161.252 43.1178C161.396 42.8637 161.551 42.6152 161.712 42.3752C161.87 42.1436 162.022 41.9093 162.188 41.6862C162.253 41.5987 162.323 41.5168 162.377 41.4208C162.377 41.418 162.385 41.4152 162.388 41.4095C162.442 41.2119 162.619 41.13 162.727 40.9832C162.817 40.8561 162.932 40.7573 163.02 40.6274C163.113 40.489 163.254 40.3902 163.361 40.2632C163.44 40.17 163.538 40.1022 163.609 40.0006C163.66 39.93 163.736 39.8707 163.801 39.8057C163.86 39.7465 163.916 39.6787 163.981 39.6279C164.066 39.5629 164.156 39.5065 164.26 39.4923C164.395 39.4754 164.542 39.5629 164.604 39.6928C164.61 39.7013 164.61 39.7126 164.615 39.721C164.697 39.8001 164.725 39.8961 164.748 40.0175C164.779 40.1728 164.782 40.3168 164.753 40.4693C164.742 40.5286 164.717 40.5879 164.748 40.6641L164.759 40.6274ZM168.649 38.5436C168.539 38.6086 168.359 38.4787 168.28 38.6848C168.198 38.6848 168.215 38.7469 168.212 38.8006C168.209 38.8401 168.206 38.8853 168.19 38.9192C168.164 38.97 168.142 38.9982 168.212 39.0321C168.249 39.049 168.257 39.1196 168.212 39.145C168.144 39.1817 168.144 39.2326 168.181 39.2806C168.221 39.3286 168.221 39.4189 168.271 39.4274C168.339 39.4387 168.412 39.4669 168.48 39.45C168.604 39.4161 168.731 39.3992 168.855 39.3653C168.953 39.3399 169.041 39.2834 169.035 39.145C169.035 39.1055 169.052 39.0801 169.072 39.049C169.097 39.0123 169.131 38.97 169.131 38.9276C169.131 38.8147 169.17 38.7187 169.213 38.6227C169.238 38.5606 169.201 38.5323 169.156 38.5239C169.117 38.5154 169.072 38.5295 169.03 38.5295C168.908 38.5352 168.787 38.538 168.652 38.5408L168.649 38.5436ZM168.164 40.9182C168.167 41.0312 168.223 41.1893 168.271 41.2458C168.316 41.2966 168.361 41.2881 168.415 41.2683C168.463 41.2514 168.466 41.2119 168.457 41.1695C168.446 41.0989 168.463 41.0368 168.502 40.9803C168.528 40.9465 168.539 40.9098 168.548 40.8674C168.587 40.6952 168.59 40.5116 168.66 40.345C168.672 40.3225 168.672 40.2942 168.652 40.2745C168.626 40.249 168.598 40.2547 168.573 40.2745C168.528 40.3083 168.477 40.314 168.423 40.3196C168.359 40.3253 168.308 40.3733 168.257 40.4043C168.218 40.4298 168.147 40.5032 168.17 40.5681C168.212 40.681 168.201 40.7827 168.161 40.8872C168.159 40.8956 168.161 40.9069 168.161 40.9182H168.164Z" fill="white"/>
<path d="M156.595 39.2015C156.626 39.2099 156.635 39.1591 156.663 39.176C156.691 39.1958 156.672 39.224 156.666 39.2494C156.641 39.3878 156.624 39.529 156.595 39.6702C156.579 39.752 156.587 39.8226 156.587 39.9017C156.587 39.9836 156.55 40.0683 156.553 40.1502C156.556 40.2942 156.553 40.4438 156.615 40.5793C156.626 40.6048 156.624 40.6273 156.621 40.6556C156.615 40.7346 156.672 40.7911 156.75 40.7996C156.781 40.8024 156.815 40.8109 156.846 40.8193C156.911 40.8391 156.976 40.8561 157.035 40.7939C157.044 40.7855 157.075 40.7826 157.08 40.7883C157.134 40.8645 157.204 40.8109 157.263 40.8222C157.419 40.8561 157.574 40.8278 157.729 40.8448C157.957 40.8702 157.847 40.8589 158.073 40.8561C158.16 40.8561 158.247 40.8561 158.335 40.873C158.419 40.8899 158.512 40.8871 158.602 40.8956C158.791 40.9125 158.664 40.8984 158.853 40.9238C158.915 40.9323 158.975 40.8843 159.042 40.8899C159.093 40.8956 159.138 40.9097 159.183 40.9295C159.313 40.9831 159.434 41.0706 159.575 41.0904C159.606 41.0961 159.637 41.113 159.665 41.1328C159.696 41.1553 159.727 41.1751 159.767 41.1779C159.86 41.1864 159.95 41.2005 159.998 41.3106C160.006 41.3276 160.04 41.3361 160.063 41.3417C160.105 41.353 160.144 41.3671 160.153 41.4208C160.164 41.4857 160.116 41.5026 160.08 41.5309C160.054 41.5506 160.02 41.5619 160.006 41.5986C160.094 41.737 160.127 41.8979 160.175 42.0532C160.189 42.0984 160.173 42.1295 160.142 42.1577C160.054 42.2396 159.956 42.3102 159.888 42.4175C159.871 42.4457 159.837 42.4627 159.809 42.4768C159.688 42.5304 159.558 42.5728 159.428 42.5389C159.324 42.5107 159.217 42.5163 159.113 42.505C158.859 42.4824 158.602 42.4909 158.346 42.4542C158.312 42.4485 158.6 42.4457 158.571 42.4683C158.543 42.4909 158.515 42.4937 158.481 42.4683C158.442 42.4372 158.405 42.4824 158.363 42.4824C158.284 42.4796 158.199 42.4881 158.123 42.4739C157.979 42.4457 158.177 42.4344 158.036 42.4514C158.025 42.4514 158.011 42.4598 157.999 42.4514C157.917 42.4118 157.833 42.4344 157.748 42.4401C157.571 42.4542 157.393 42.4401 157.216 42.4739C157.182 42.4824 157.148 42.4485 157.12 42.457C156.97 42.5163 156.796 42.4852 156.663 42.6095C156.649 42.6208 156.641 42.6321 156.635 42.649C156.598 42.7591 156.584 42.8805 156.502 42.9709C156.483 42.9935 156.474 43.0528 156.488 43.0867C156.517 43.1657 156.494 43.2335 156.483 43.3069C156.48 43.3295 156.483 43.3521 156.457 43.3605C156.432 43.369 156.426 43.386 156.435 43.4114C156.466 43.5045 156.438 43.5921 156.429 43.6824C156.415 43.8151 156.387 43.9478 156.39 44.0805C156.395 44.3121 156.381 44.5408 156.376 44.7695C156.37 44.9671 156.359 45.1676 156.376 45.3681C156.39 45.5262 156.361 45.6871 156.35 45.8453C156.336 46.0486 156.319 46.2519 156.305 46.4552C156.302 46.4975 156.311 46.5427 156.283 46.5822C156.268 46.5992 156.266 46.6387 156.274 46.6584C156.314 46.7488 156.305 46.8392 156.299 46.9323C156.291 47.1215 156.302 47.3107 156.252 47.4942C156.246 47.5168 156.235 47.5394 156.246 47.5592C156.294 47.6382 156.26 47.7003 156.223 47.7681C156.206 47.802 156.184 47.8443 156.198 47.881C156.218 47.9375 156.198 47.9855 156.19 48.0363C156.181 48.09 156.184 48.1493 156.181 48.2058C156.271 48.2368 156.147 48.3074 156.204 48.3469C156.232 48.3667 156.215 48.3978 156.204 48.4175C156.13 48.5276 156.17 48.6378 156.204 48.7479C156.215 48.7874 156.229 48.8241 156.243 48.8608C156.252 48.8806 156.26 48.9032 156.243 48.9229C156.161 49.0274 156.142 49.1573 156.116 49.2844C156.105 49.3352 156.071 49.3691 156.029 49.3916C155.958 49.4312 155.888 49.4566 155.809 49.4707C155.657 49.5018 155.505 49.5413 155.372 49.6401C155.35 49.6571 155.318 49.6571 155.29 49.6684C155.225 49.6938 155.189 49.5752 155.107 49.6401C155.054 49.6825 154.977 49.6119 154.907 49.626C154.896 49.626 154.879 49.6204 154.873 49.6119C154.8 49.5046 154.684 49.4312 154.656 49.29C154.648 49.2505 154.642 49.2109 154.65 49.1714C154.67 49.0867 154.656 49.0076 154.636 48.9258C154.614 48.8241 154.617 48.7225 154.665 48.6265C154.67 48.6152 154.684 48.6011 154.681 48.5926C154.645 48.4994 154.712 48.4345 154.727 48.3554C154.78 48.0787 154.82 47.7992 154.82 47.514C154.82 47.3869 154.853 47.257 154.814 47.13C154.853 46.8674 154.814 46.6048 154.808 46.345C154.803 46.0203 154.797 45.6956 154.803 45.3709C154.808 45.1337 154.78 44.8994 154.797 44.665C154.817 44.3968 154.791 44.1314 154.789 43.866C154.786 43.6853 154.791 43.5045 154.791 43.3267C154.791 43.1883 154.791 43.0415 154.743 42.906C154.727 42.8551 154.743 42.7958 154.707 42.745C154.67 42.697 154.631 42.6716 154.583 42.6801C154.416 42.7083 154.245 42.6772 154.078 42.7337C154.039 42.7478 153.996 42.7535 153.957 42.7507C153.867 42.745 153.779 42.7704 153.692 42.7902C153.574 42.8156 153.45 42.8269 153.326 42.8269C153.179 42.8269 153.035 42.8692 152.891 42.8749C152.832 42.8749 152.773 42.9003 152.711 42.8664C152.677 42.8495 152.618 42.8382 152.593 42.8579C152.463 42.9568 152.308 42.8947 152.173 42.954C152.054 43.0048 151.925 43.0076 151.792 42.9963C151.733 42.9907 151.665 42.9794 151.603 43.0217C151.516 43.081 151.403 43.0471 151.307 43.098C151.234 43.0189 151.178 43.1036 151.116 43.1205C151.028 43.146 150.941 43.1431 150.853 43.1516C150.71 43.1657 150.597 43.1036 150.479 43.0556C150.462 43.0471 150.433 43.033 150.431 43.0189C150.416 42.9285 150.34 42.8975 150.295 42.8354C150.278 42.81 150.25 42.7902 150.242 42.7619C150.216 42.6744 150.163 42.6067 150.115 42.5332C150.047 42.4316 150.008 42.3215 150.033 42.1944C150.053 42.1041 150.061 42.0137 150.067 41.9234C150.07 41.8725 150.095 41.8443 150.137 41.8245C150.245 41.7737 150.352 41.7201 150.467 41.689C150.501 41.6805 150.546 41.6805 150.566 41.6438C150.634 41.5196 150.752 41.5535 150.848 41.5365C150.927 41.5252 151.008 41.5309 151.087 41.4998C151.206 41.4518 151.333 41.4462 151.454 41.4179C151.603 41.3841 151.758 41.353 151.91 41.3304C152.023 41.3135 152.139 41.2852 152.254 41.2655C152.378 41.2429 152.497 41.1949 152.626 41.1977C152.683 41.1977 152.736 41.1695 152.793 41.161C152.982 41.1384 153.173 41.113 153.365 41.0989C153.596 41.0819 153.822 41.0368 154.053 41.0198C154.149 41.0142 154.25 41.0085 154.346 40.9746C154.433 40.9436 154.529 40.9436 154.622 40.9295C154.642 40.9295 154.667 40.9295 154.679 40.9097C154.704 40.8532 154.758 40.825 154.786 40.7826C154.822 40.729 154.848 40.6443 154.828 40.568C154.803 40.4664 154.82 40.376 154.865 40.2885C154.87 40.2772 154.879 40.2575 154.876 40.2518C154.789 40.1558 154.87 40.0513 154.865 39.9497C154.859 39.8255 154.865 39.6984 154.882 39.5713C154.904 39.3963 154.935 39.2156 154.932 39.0349C154.932 39.0123 154.938 38.9925 154.944 38.9699C155.003 38.7356 155.056 38.4984 155.068 38.2527C155.124 38.1652 155.121 38.0607 155.141 37.9647C155.166 37.8405 155.194 37.7134 155.214 37.5864C155.228 37.4876 155.22 37.3859 155.234 37.2899C155.262 37.1205 155.22 36.9454 155.273 36.776C155.344 36.5643 155.448 36.4908 155.648 36.5445C155.713 36.5614 155.767 36.5643 155.826 36.5332C155.919 36.488 156.018 36.5134 156.113 36.5163C156.122 36.5163 156.133 36.5163 156.136 36.5219C156.192 36.6207 156.291 36.5897 156.373 36.6151C156.469 36.6461 156.556 36.6941 156.598 36.8014C156.607 36.824 156.629 36.841 156.646 36.8607C156.717 36.937 156.748 37.033 156.745 37.1403C156.745 37.2363 156.756 37.3407 156.745 37.4311C156.725 37.592 156.739 37.7558 156.708 37.9167C156.674 38.0946 156.649 38.2753 156.624 38.456C156.618 38.4956 156.618 38.5379 156.624 38.5746C156.652 38.7243 156.621 38.8626 156.584 39.0038C156.57 39.0574 156.581 39.1196 156.581 39.1845L156.595 39.2015Z" fill="white"/>
<path d="M163.256 37.2081C163.299 37.2307 163.313 37.2166 163.333 37.2109C163.409 37.194 163.479 37.1968 163.524 37.2843C163.552 37.3352 163.606 37.3549 163.648 37.386C163.792 37.4961 163.871 37.6627 163.972 37.8095C164.04 37.9055 164.034 38.0411 164.063 38.1625C164.068 38.1822 164.054 38.202 164.04 38.2161C163.981 38.2726 163.964 38.3573 163.939 38.4335C163.891 38.5691 163.817 38.6707 163.702 38.7441C163.496 38.8796 163.302 39.0434 163.144 39.2354C162.913 39.5121 162.667 39.7691 162.422 40.0317C162.371 40.0881 162.312 40.1361 162.244 40.1559C162.089 40.2039 161.991 40.3197 161.895 40.4524C161.793 40.5907 161.689 40.7291 161.579 40.8618C161.393 41.082 161.179 41.2825 161.075 41.579C161.03 41.7032 160.968 41.819 160.959 41.9545C160.953 42.0336 160.905 42.0957 160.872 42.1578C160.81 42.2792 160.66 42.2538 160.587 42.138C160.519 42.0336 160.528 41.946 160.573 41.8387C160.621 41.7286 160.652 41.6072 160.694 41.4943C160.793 41.2317 160.917 40.986 161.044 40.7375C161.176 40.4778 161.294 40.2095 161.427 39.9526C161.534 39.7437 161.658 39.5432 161.771 39.3371C161.87 39.1564 161.965 38.9728 162.061 38.7921C162.101 38.7159 162.16 38.6538 162.208 38.586C162.278 38.49 162.349 38.3883 162.394 38.2698C162.433 38.1653 162.495 38.0665 162.543 37.9648C162.594 37.8632 162.684 37.7898 162.726 37.6825C162.735 37.6599 162.752 37.6401 162.76 37.6175C162.803 37.5187 162.825 37.4029 162.96 37.4086C162.986 37.4086 162.991 37.3747 163.006 37.3549C163.076 37.2646 163.175 37.242 163.251 37.2109L163.256 37.2081Z" fill="white"/>
<path d="M153.898 37.7219C153.878 37.8914 153.884 38.0636 153.923 38.233C153.937 38.2923 153.853 38.4645 153.811 38.4871C153.777 38.5041 153.599 38.4674 153.571 38.4363C153.484 38.3375 153.362 38.2838 153.281 38.1765C153.255 38.1427 153.216 38.1342 153.179 38.1285C153.066 38.1144 152.973 38.0551 152.889 37.9845C152.841 37.945 152.787 37.9676 152.742 37.9365C152.655 37.8772 152.567 37.8095 152.511 37.7135C152.497 37.6881 152.483 37.6655 152.46 37.6768C152.398 37.7106 152.37 37.657 152.328 37.6288C152.269 37.5892 152.224 37.5186 152.145 37.5215C152.111 37.5215 152.108 37.4876 152.094 37.4594C152.049 37.3521 152.046 37.2278 151.987 37.1262C151.981 37.1177 151.978 37.1064 151.981 37.0951C152.015 36.9257 151.987 36.7224 152.122 36.6038C152.209 36.5276 152.317 36.4485 152.443 36.4542C152.466 36.4542 152.491 36.4683 152.511 36.4542C152.584 36.3921 152.658 36.3243 152.762 36.3808C152.965 36.3243 153.126 36.4231 153.266 36.5643C153.337 36.6349 153.402 36.7139 153.484 36.7761C153.782 37.0048 153.878 37.3436 153.901 37.7219H153.898Z" fill="white"/>
<path d="M150.983 39.4246C150.989 39.3117 150.966 39.1761 151.043 39.0575C151.071 39.0152 151.096 38.9841 151.15 38.97C151.243 38.9418 151.341 38.9135 151.412 38.8345C151.429 38.8147 151.454 38.8034 151.477 38.8091C151.643 38.8514 151.818 38.795 151.984 38.8486C152.026 38.8627 152.074 38.8486 152.108 38.9022C152.131 38.9418 152.187 38.922 152.227 38.9277C152.3 38.9361 152.382 38.9164 152.427 39.0067C152.441 39.0378 152.477 39.0265 152.506 39.0321C152.551 39.0378 152.579 39.0632 152.568 39.114C152.556 39.1677 152.568 39.1987 152.621 39.2185C152.709 39.2524 152.723 39.3568 152.768 39.4274C152.926 39.6759 153.092 39.9159 153.267 40.1531C153.303 40.2039 153.363 40.2576 153.329 40.3281C153.292 40.4044 153.222 40.4383 153.143 40.4496C153.075 40.458 153.01 40.4496 152.948 40.427C152.771 40.3677 152.585 40.3733 152.404 40.3649C152.114 40.3536 151.835 40.3253 151.561 40.2011C151.502 40.1757 151.434 40.1672 151.37 40.1361C151.2 40.0486 151.127 39.8651 151.006 39.7352C150.983 39.7098 150.986 39.6787 150.986 39.6477C150.986 39.5799 150.986 39.515 150.986 39.4274L150.983 39.4246Z" fill="white"/>
</svg>
