<svg width="173" height="56" viewBox="0 0 173 56" fill="none" xmlns="http://www.w3.org/2000/svg">
<g opacity="0.2">
<path d="M5.28489 33.0098C5.66544 33.1877 5.27643 32.8037 6.06571 32.8912C6.53083 32.3011 6.63231 31.5048 6.82399 30.6352C7.07487 28.9806 7.16789 26.9278 9.24821 28.9467C9.34968 30.0281 8.94659 31.0135 8.72954 32.0921C8.9043 32.6455 8.6788 32.7698 9.53855 32.5891C10.4547 32.5326 11.3962 32.4592 12.2531 32.0187C12.7915 31.4314 12.5604 30.5307 13.1833 30.1636C13.189 30.0733 13.0959 30.1269 13.079 30.062C14.931 27.4728 13.3299 26.9702 15.9712 27.2243C19.0663 27.9867 16.6336 31.3834 16.0839 33.3599C15.7118 34.9326 14.8408 36.3867 14.6153 38.1148C14.2601 38.2475 14.3701 38.8291 14.2207 39.1849C14.0769 39.3035 13.9839 39.5181 14.1699 39.7327C13.8599 39.8061 13.7697 40.2239 13.499 40.3905C12.9296 40.368 13.1721 40.6475 12.4222 40.2889C12.0022 40.5289 11.9289 40.6051 11.3849 40.5007C11.2017 40.4527 11.3511 40.0941 11.0805 40.1195C9.93601 39.2216 10.1474 38.126 10.2263 36.7566C10.4406 36.5449 10.2235 36.3218 10.5759 36.0253C10.7591 35.7599 11.3426 34.7463 10.5702 35.0258C10.2207 35.0201 9.89936 34.8366 9.47089 35.0879C9.16082 35.0653 8.80283 35.1698 8.40255 35.2291C8.2165 35.15 8.04455 35.3816 7.75139 35.3957C7.79086 35.5256 7.8867 35.63 7.81059 35.8672C7.55407 36.4912 8.16576 37.1604 8.03892 37.9228C7.66401 38.3745 7.59072 38.9477 7.17634 39.4221C6.49418 40.1251 6.11645 40.9722 5.50476 41.5115C5.19751 42.2174 4.43641 42.6211 3.78808 43.1322C3.66123 43.0503 3.32015 42.9459 3.20457 43.2056C3.03826 42.9233 2.11368 43.0588 2.13905 42.7228C1.79796 42.6776 1.62037 42.1694 1.25392 41.9548C0.972037 41.6696 1.01714 41.0428 0.780355 40.7124C1.18345 40.0574 0.676057 39.1566 0.678876 38.4564C0.788812 37.7618 0.188395 37.0531 0.450549 36.2795C0.134837 36.1722 0.512564 36.1383 0.402628 35.8587C0.267323 35.582 0.174301 35.1274 0.391353 34.8818C0.0249012 34.3707 0.343432 33.614 0.132018 33.0013C0.0981915 32.6709 0.340613 32.3491 0.109467 31.9651C-0.772836 29.0003 3.97412 30.8893 3.7768 32.7754C3.8811 32.8432 3.87828 33.2865 4.09533 33.278C4.30393 33.0917 5.23415 33.2639 5.29053 33.007L5.28489 33.0098ZM4.36876 35.4493C4.38849 35.6837 4.0305 35.5538 3.96285 35.8107C4.0305 36.3133 3.80781 36.4884 4.23909 37.1265C4.09251 37.214 4.36594 38.0922 4.583 37.4484C4.85924 37.1322 5.361 37.2479 5.73591 36.9486C6.13901 35.5143 6.18974 35.1726 4.60273 35.5199C4.48997 35.63 4.43923 35.534 4.36876 35.4493Z" fill="white"/>
<path d="M43.6355 35.0652C43.5566 34.0742 44.8307 33.453 42.8209 33.916C41.9386 34.0431 41.4058 34.1786 40.5883 34.5146C40.5996 34.5965 40.6616 34.5909 40.7293 34.588C40.3515 35.0991 40.5489 36.7396 39.9203 37.1772C39.5792 37.3099 39.5087 37.8154 39.0718 37.9791C38.742 38.6031 38.1077 38.7923 37.9245 39.5434C37.3241 40.5655 37.2057 40.4017 36.267 39.9387C35.7765 39.7834 35.1818 39.4276 34.9985 38.7556C34.8914 37.341 34.3784 35.8417 34.0091 34.4638C34.0824 33.933 33.0761 28.7094 34.9675 29.8897C36.2586 30.4939 35.9964 32.0779 36.3741 33.1141C36.1712 33.4756 38.2487 32.9137 38.4516 32.7471C39.1113 32.764 39.1084 31.7899 39.1423 31.1066C39.1986 30.3132 39.396 29.6722 39.2973 28.7743C39.348 27.7438 40.8364 28.4299 41.2846 28.9861C41.6116 29.5904 41.2959 30.172 41.2536 30.8497C41.0619 31.9508 40.5714 32.2784 42.0598 31.8407C42.429 31.8859 43.1789 31.7955 43.4636 31.4511C43.8328 31.5668 44.0978 31.3353 44.515 31.228C44.9209 30.8525 45.1295 30.5278 45.2423 29.9461C45.4988 29.7795 45.713 29.6581 45.6877 29.2995C45.8878 29.1838 45.9808 28.9212 46.0541 28.6332C46.0823 28.3452 46.398 28.3254 46.3275 27.9725C46.2063 27.5546 46.7955 26.9165 47.2324 27.2863C47.8413 27.1536 48.5234 27.4303 48.8504 28.1023C49.479 29.4181 48.0499 30.4459 47.8948 31.8238C47.5058 32.4337 48.095 32.5833 47.6411 33.2045C46.5897 34.6671 46.2627 37.0756 45.5298 38.8714C44.9942 40.0121 45.8032 39.453 44.6278 40.7547C44.3149 40.6982 43.9653 40.7067 43.6383 40.5006C43.2409 40.029 42.15 39.2582 42.4516 38.5297C42.3586 38.1852 42.6602 38.0243 42.8519 37.6205C42.8462 37.2732 42.959 37.0897 43.1507 36.7678C43.1169 36.2116 43.6017 35.7683 43.4946 35.1132C43.4946 35.0765 43.5199 35.0596 43.6271 35.068L43.6355 35.0652ZM36.6786 35.308C36.8984 35.421 36.5123 36.8949 37.0309 36.6944C37.6144 35.9575 38.5418 36.1156 38.773 34.7433C38.0683 34.9015 37.4481 35.037 36.6786 35.308Z" fill="white"/>
<path d="M30.4967 38.7243C30.5362 38.7469 30.4967 38.8232 30.5447 38.857C30.6433 38.4053 31.0746 38.953 31.3142 38.7978C31.8949 38.7469 32.6503 39.1535 33.2592 39.5629C33.6595 39.9356 34.3586 42.1973 33.5016 42.3554C31.7793 42.3159 30.291 42.4881 28.5996 42.6999C28.1233 42.5983 28.2698 43.3211 28.0951 43.5978C27.8667 43.9649 27.8019 44.4787 27.5708 44.9136C27.334 45.4077 27.1789 45.8369 27.0775 46.4722C26.6462 47.7089 26.4742 49.3183 26.0176 50.651C24.9182 51.947 23.8442 50.2247 23.4327 48.9851C23.6695 47.963 24.0923 47.0962 24.5067 46.0769C24.5433 45.6533 24.4785 44.9446 24.8985 44.6453C24.859 44.2133 25.0056 43.7192 25.1804 43.2533C23.3312 43.3211 20.1713 45.45 18.6237 43.5724C18.1952 43.2251 17.4962 42.5728 18.0599 42.0251C18.6575 41.7145 19.3453 41.8811 19.9937 41.4462C21.1381 41.0368 21.8767 40.5201 23.0634 40.2999C23.4327 40.0542 23.396 40.0486 23.9006 39.9667C24.3178 39.7549 24.5349 39.69 25.0789 39.6928C25.1916 39.6448 25.341 39.3003 25.4792 39.5996C26.1021 39.4331 26.6095 39.1366 27.2776 39.0095C27.5595 39.3455 27.754 38.8712 28.0979 38.9389C28.2586 38.9587 27.9541 39.2806 28.4502 39.018C28.7575 38.97 28.8421 39.1563 29.1127 38.8316C29.5496 38.9643 29.9668 38.8345 30.4939 38.7272L30.4967 38.7243Z" fill="white"/>
<path d="M7.26661 43.0725C7.07775 43.0302 7.15386 42.536 7.43292 42.4993C7.35963 42.409 7.26097 42.4259 7.21305 42.3412C7.52877 41.6269 7.21024 39.8593 8.66477 40.5765C10.5055 40.9605 9.76694 42.3327 10.2377 42.6377C14.6577 42.6123 13.2482 42.0899 14.6041 38.5322C14.7394 37.5016 15.5766 38.0014 16.084 38.4729C17.1975 39.3567 15.8049 40.7741 16.1122 41.8725C16.1291 41.96 15.9741 41.9403 15.9205 42.1069C15.6273 43.9986 15.1622 45.7634 14.9142 47.785C14.3222 48.8777 13.9022 48.265 13.1439 48.9173C12.8733 49.0726 12.7352 49.2335 12.3716 49.3041C12.0615 49.6288 11.8473 49.9846 11.3399 50.1314C11.2215 50.2867 11.0382 50.3432 10.8099 50.4363C10.7028 50.538 10.404 50.8683 10.1954 50.7328C10.1362 51.1027 9.65419 51.3116 9.23981 51.4359C8.82544 51.4105 8.95511 51.3455 8.55201 51.162C8.34342 51.193 8.35187 51.193 8.27295 50.8683C8.20247 50.8401 8.24476 50.9248 8.15455 50.97C7.83884 50.7441 7.62743 50.4674 7.32581 50.0749C6.83251 49.8264 7.10312 49.0641 7.08339 48.5445C7.14258 47.6749 6.89452 46.7827 7.13413 45.9074C6.96781 45.6391 7.02137 45.4443 7.17077 45.1873C6.9509 44.7497 7.08621 44.2725 7.15668 43.7219C7.15104 43.5384 7.04392 43.2419 7.27225 43.0725H7.26661ZM10.8494 46.6471C11.3032 46.0994 12.194 45.8932 12.7775 45.4019C12.9241 44.7836 12.9663 44.4786 12.2081 44.7892C11.9346 44.8796 11.5287 44.8401 11.2102 44.7892C11.0213 45.1732 10.5196 44.84 10.2518 45.3511C9.9699 45.5939 10.0996 47.3869 10.762 46.4438C10.8607 46.4947 10.762 46.5907 10.8494 46.6471Z" fill="white"/>
<path d="M26.4659 28.7092C26.6209 29.017 27.6639 28.5031 28.5377 28.5991C28.766 28.5765 28.9549 28.297 29.3044 28.4438C31.0606 29.1638 31.2156 30.457 30.3812 32.2217C30.291 32.8401 30.1416 33.4641 29.7583 34.0401C30.0063 34.3789 29.3467 35.1102 28.9464 35.1243C26.8689 35.2542 25.0762 37.3098 23.0719 38.2641C22.3785 38.1879 21.9529 37.6938 21.6259 37.1262C21.4314 37.033 21.3383 36.9088 21.3073 36.6575C21.0621 36.5728 21.0536 36.4796 21.0903 36.1352C21.2651 34.3337 21.0762 32.6198 21.2622 30.8156C21.3355 30.1775 21.3778 30.0448 22.1079 29.9008C22.3644 29.624 22.8549 29.641 23.1565 29.3982C23.8133 29.2796 24.4109 29.0876 25.141 28.9887C25.3834 28.9605 26.3418 29.0509 26.4715 28.7064L26.4659 28.7092ZM28.1684 30.8382C26.6604 31.2194 24.6336 30.9822 23.2524 31.6231C23.134 31.8998 23.2777 34.458 23.6329 34.4608C24.6308 34.1813 25.8513 33.5262 26.9 33.2523C27.8725 33.0405 28.0106 31.7954 28.1684 30.8353V30.8382Z" fill="white"/>
<path d="M41.4198 50.7132C40.904 50.7894 40.5601 50.4477 40.095 50.171C39.1788 49.7193 39.5509 48.5927 39.5791 47.644C39.4269 47.0199 39.4466 46.4919 39.4861 45.8482C39.3029 45.7691 39.2549 44.298 39.4776 43.8915C39.5143 42.5051 38.4318 40.7827 40.5234 40.9663C42.6968 42.7931 39.5481 43.4227 43.7736 42.539C44.3148 42.3018 44.8081 42.4458 45.3211 42.0872C45.5213 42.0731 45.7214 42.2425 45.8652 41.9432C46.1921 40.8646 46.6319 39.8368 47.004 38.6679C47.3817 38.3149 48.5544 39.0575 48.467 39.5912C48.2978 40.5879 47.9257 41.3559 47.6044 42.3893C47.5283 42.7733 47.4381 43.0783 47.5452 43.5131C47.2971 43.6712 47.1618 43.9395 46.9899 44.2331C46.4487 45.2439 47.9455 45.2185 45.2619 47.0962C44.3148 47.9856 43.2549 48.7875 42.2993 49.7362C41.9582 49.9649 41.9272 50.7499 41.4142 50.716L41.4198 50.7132ZM45.2196 44.1653C44.0639 44.4336 42.4346 44.4788 41.4959 45.1338C41.5072 45.2016 41.603 45.1677 41.5918 45.2411C41.2225 45.6279 41.5495 46.4072 41.5946 46.9832C42.2908 46.6726 42.818 46.1559 43.5001 45.6985C43.9793 45.4783 44.2951 45.2919 44.653 44.874C44.9631 44.6905 45.1717 44.6284 45.2196 44.1653Z" fill="white"/>
<path d="M57.2168 38.1769C57.1999 38.0413 57.1745 37.886 57.3606 37.8183C58.2429 36.6211 58.7756 35.2375 59.5029 33.8455C59.6044 33.3627 59.9257 32.781 60.1681 32.1909C60.4303 31.485 60.7855 30.9034 60.9884 30.0648C61.0279 29.7005 60.9095 29.2911 61.1886 28.9156C61.7411 28.3848 61.6988 28.814 62.2682 28.893C63.19 28.91 64.0553 29.6384 63.8129 30.7057C62.8827 33.501 61.9497 36.2173 60.7178 38.8545C59.9257 41.7148 59.0378 42.6239 56.8137 39.8569C56.8954 39.583 56.5882 39.3825 56.6981 39.0719C56.9434 38.8884 56.8419 38.2192 57.214 38.1769H57.2168Z" fill="white"/>
<path d="M57.7495 45.4728C57.8876 45.6987 58.7473 45.2328 58.9785 45.1763C59.7199 45.0436 60.4866 44.8008 61.1885 44.6201C61.6254 44.6568 61.6451 44.3067 62.1046 44.1909C62.6543 44.1598 63.2378 44.3405 63.6944 44.7161C64.2131 44.8911 65.0052 46.5288 64.1088 46.7208C62.9362 47.0512 61.6621 47.565 60.4246 47.7599C59.4464 48.2794 58.1695 48.3867 57.0617 48.9768C56.729 48.9768 56.4753 49.2394 56.1427 49.4088C55.7481 49.4229 55.0631 49.5189 54.8009 49.0756C53.1942 47.9547 53.5494 47.4013 53.0222 45.4248C52.8588 44.366 52.1625 43.3297 52.295 42.1805C52.9377 41.8954 53.758 42.333 54.1554 42.8892C55.0941 43.6008 55.2181 46.2126 55.8778 46.1053C56.1512 45.902 57.5832 45.8144 57.7495 45.47V45.4728Z" fill="white"/>
<path d="M53.4198 31.1543C53.4367 31.2334 53.4029 31.3379 53.5297 31.352C54.3303 32.6367 53.2365 32.3854 55.0011 33.3172C57.0561 34.856 54.4289 38.0071 52.8785 38.7582C51.5452 39.8198 50.071 38.7977 49.8765 37.2419C50.0625 36.2028 50.3754 35.1355 50.8518 34.1642C51.1224 33.2805 51.3846 32.7186 51.7905 31.8009C52.3232 30.9256 52.295 30.8325 53.417 31.1543H53.4198ZM51.5509 37.4791C52.1823 37.2843 52.7404 36.8551 53.2478 36.3073C53.9243 35.2654 54.6601 34.6753 53.0505 33.9299C52.5262 34.5426 52.2246 35.3078 51.875 36.1774C51.6608 36.4965 51.5452 37.0076 51.5509 37.4791Z" fill="white"/>
<path d="M119.694 34.4412C116.393 33.4896 120.038 21.1874 117.814 23.2825C116.213 22.9013 114.431 25.6204 111.491 23.8641C111.432 23.6947 111.328 23.5987 111.136 23.6665C108.069 21.9272 110.271 18.8043 113.171 18.4034C113.557 18.138 114.039 17.9262 114.609 17.7794C118.888 16.6838 123.669 15.6504 128.151 15.3285C128.892 15.3794 129.749 14.9078 130.648 15.0801C133.16 14.7582 142.623 14.4476 141.608 18.6151C141.681 19.0415 141.123 18.8636 140.824 19.1686C139.465 20.8599 139.446 20.8458 137.134 21.066C136.018 20.9926 135.993 20.7949 135.722 22.0401C135.009 22.6528 134.406 23.5422 134.039 24.5107C133.34 26.0157 130.561 31.9734 131.962 32.8995C137.089 34.3056 141.098 35.0285 137.608 40.9353C136.15 44.4845 135.257 47.5904 130.778 46.653C130.642 47.1274 129.168 47.133 128.486 47.0285C128.269 47.1923 127.722 47.5029 127.522 47.0455C127.404 47.1415 127.339 47.4323 127.085 47.2318C126.865 47.4973 126.6 47.3533 126.346 47.3137C126.022 47.4041 125.273 48.1608 125.022 47.7006C124.903 48.35 123.409 48.0055 123.088 48.7566C122.705 48.5787 122.603 48.5053 122.299 48.8808C122.115 48.7368 122.051 48.6267 121.797 48.9288C120.802 48.9966 121.721 49.3975 120.486 49.9707C123.556 50.6342 126.916 49.4511 130.564 49.2648C134.008 49.646 136.277 48.237 138.961 50.8742C139.508 51.5152 139.054 51.9048 139.206 52.7124C139.942 53.7119 137.675 53.7994 136.875 53.6102C133.943 52.8027 131.057 53.4917 128.058 54.0451C126.524 54.319 125.084 54.6775 123.595 54.8102C123.034 54.9797 122.442 55.2423 121.989 54.9655C121.295 55.3637 120.399 55.5811 119.494 55.3552C118.716 55.6488 116.283 56.6258 115.86 55.3919C115.316 55.6065 115.189 55.0305 114.944 54.7848C114.403 54.7368 114.91 53.5989 114.313 53.3307C112.633 51.7185 113.76 49.7137 114.132 47.6723C115.381 46.1956 115.939 43.5951 117.611 42.6266C118.961 41.6158 120.393 41.5876 122.265 41.4323C123.421 40.924 124.757 41.0144 126.313 40.8901C127.153 40.557 128.244 40.3141 129.199 40.2097C129.96 40.9523 132.483 39.1367 130.493 38.6369C125.709 38.1061 121.061 40.2323 116.371 40.9523C115.018 40.5372 113.602 40.0318 113.236 38.3574C112.275 36.5616 118.4 35.2148 119.686 34.4412H119.694ZM122.922 33.2581C123.127 33.4444 123.378 33.1847 123.556 33.3767C129.239 32.5522 125.363 33.5884 127.093 28.8929C128.303 26.5804 128.585 24.2594 129.05 21.7945C129.554 20.0241 124.469 21.7691 123.308 21.8425C123.516 25.6232 122.485 29.4237 122.922 33.2581Z" fill="white"/>
<path d="M96.5934 27.3062C96.74 27.1848 96.7682 27.0323 96.9091 26.9928C97.2417 27.3259 98.0649 26.9786 98.7668 26.9786C99.0317 26.3716 99.3728 26.7048 100.109 26.8064C103.08 27.1537 105.825 25.4878 109.132 25.6996C109.786 25.3946 110.595 25.4793 111.359 25.6008C115.406 27.6648 117.284 30.8554 112.235 33.3768C110.048 33.4672 107.815 33.4587 105.763 33.9613C103.984 33.8201 101.701 33.9698 100.92 35.7712C100.689 36.9034 99.7928 37.3298 99.4179 38.5552C98.499 41.1077 97.5603 43.999 97.2277 47.023C96.1368 49.423 98.2791 51.3092 94.9218 51.8061C93.5631 53.1897 90.547 50.7219 90.9444 48.5929C92.1932 44.7924 92.0325 40.6418 92.1509 36.5815C89.3715 36.4912 85.8169 38.7303 82.7979 39.3401C80.6218 40.1731 78.3018 41.726 75.8466 41.5115C74.3329 41.2969 73.5295 39.3006 72.7994 37.9368C72.7853 37.2987 71.2265 36.7792 72.1285 35.9829C74.2991 34.4413 76.9883 33.8822 79.3815 32.6116C82.9981 31.3721 86.9642 29.7288 90.4568 29.0285C91.5477 28.3707 93.005 27.789 94.4342 27.7777C95.0797 27.4869 95.8436 26.9165 96.5934 27.309V27.3062Z" fill="white"/>
<path d="M99.3474 16.6779C101.087 16.9377 103.99 16.901 105.605 19.0384C106.192 19.6342 105.174 20.3542 105.769 21.1053C105.027 21.4017 104.359 21.7519 103.663 22.3504C97.876 22.6413 92.8246 24.0305 87.8155 26.8117C82.0143 26.4361 84.3849 17.9627 85.6506 14.4643C85.1404 14.0803 85.5914 13.5043 85.3884 12.7956C84.7457 12.1123 84.9346 11.2737 84.5428 10.3447C83.9593 9.1447 86.8289 7.79787 87.7619 6.89716C88.2919 7.04398 88.8077 6.36633 89.3884 6.26186C89.9071 6.64586 90.4314 5.79315 91.0149 5.93997C92.7344 5.19173 94.4398 4.97432 96.3031 4.2402C97.2643 3.55972 98.6089 3.77149 99.8689 3.51172C100.202 4.06231 100.709 4.23737 101.408 4.46043C102.406 4.95738 103.139 6.18844 103.708 7.12022C103.593 7.75834 103.142 7.65104 103.666 8.57152C103.739 8.92447 103.356 8.90188 103.023 9.02329C102.888 9.66141 102.242 10.0426 101.56 10.5028C99.1135 11.2567 96.957 10.7118 94.5892 12.0247C93.5349 12.3918 93.1234 13.4365 93.0867 14.6337C92.4159 15.2718 92.351 16.02 91.9874 17.0761C89.9663 20.1368 91.449 19.2078 93.9099 18.5923C95.0881 18.0699 96.6695 18.0191 97.8675 17.2596C98.358 17.1269 99.1727 17.4939 99.3474 16.6751V16.6779Z" fill="white"/>
<path d="M129.983 5.44031C129.687 4.76266 129.072 4.72031 128.531 4.50854C128.272 4.49442 126.871 4.45772 127.105 3.88736C127.502 3.39324 127.22 2.60829 126.902 1.92782C125.368 -0.299966 123.849 -1.01997 122.758 2.07746C121.115 4.48878 120.139 7.8488 121.115 10.8474C123.209 15.9383 131.561 10.4493 129.983 5.44314V5.44031ZM126.532 9.13352C126.372 9.2634 126.194 9.36222 126.005 9.44128C125.709 9.58811 125.16 9.84505 124.697 9.44693C124.528 9.3114 124.308 9.06011 124.229 8.69587C124.12 8.47563 123.998 7.89963 124.255 7.45915C124.266 7.41115 124.218 7.3688 124.339 7.15986C124.432 6.85774 124.782 6.49632 125.289 6.45679C125.284 6.45679 125.289 6.45679 125.382 6.4455C126.809 6.10949 127.801 8.17916 126.532 9.13634V9.13352Z" fill="white"/>
<path d="M150.247 50.3715C150.2 50.1992 149.954 50.1315 149.785 50.0044C149.405 49.2421 149.647 49.6712 149.65 49.0162C149.066 48.2256 149.796 48.1465 149.455 48.0251C149.089 47.1554 149.34 47.2486 149.571 46.6162C149.01 46.4016 149.625 46.4439 149.45 46.0627C149.173 45.882 149.261 45.8707 149.478 45.6618C149.221 45.4444 149.374 45.1592 149.467 44.8599C149.351 44.586 149.247 44.4194 149.571 44.2133C149.117 44.0693 149.32 43.9648 149.399 43.6712C149.641 43.4368 149.049 43.2985 149.252 43.0274C149.548 42.7394 149.314 42.8891 149.233 42.6462C149.568 42.3752 149.19 41.9742 149.388 41.6382C149.331 41.5592 149.188 41.5112 149.196 41.3869C149.76 40.3705 149.219 41.2203 149.238 40.2406C149.134 39.9074 149.281 39.5968 149.399 39.289C149.221 39.0575 149.413 39.1281 149.619 39.097C149.689 38.9784 149.21 38.9079 149.427 38.7836C149.551 38.617 149.475 38.49 149.447 38.3403C149.509 38.0806 149.667 37.8349 149.625 37.5497C149.743 37.1798 149.605 36.8213 149.515 36.4655C149.78 36.1634 149.856 34.7205 150.417 34.8024C150.233 34.6132 151.15 34.153 151.316 34.3139C151.476 34.2942 151.53 34.0881 151.727 34.0937C152.139 34.1191 152.629 34.0824 152.999 33.9412C153.486 34.0909 153.286 33.8452 154.264 33.8593C155.006 33.8481 155.787 33.8368 156.59 33.7492C156.714 33.7492 156.689 33.8819 156.846 33.817C157.382 33.6589 157.957 33.8904 158.555 33.8001C162.665 33.5177 166.749 34.0288 169.351 34.2716C170.887 34.3281 171.989 34.5794 172.037 35.9008C172.35 36.5784 172.925 38.0721 172.736 38.2246C172.734 38.4759 172.891 38.9559 172.64 39.241C172.48 39.5883 172.748 40.009 172.435 40.3055C172.64 40.4439 172.525 40.6641 172.311 40.7008C172.364 41.4519 172.212 42.2876 172.167 43.0839C171.93 43.3267 172.364 43.3013 172.339 43.5808C172.147 43.8519 172.201 44.1032 172.26 44.411C172.015 44.9051 172.311 44.7526 172.156 45.114C172.108 45.3879 172.139 45.5601 171.975 45.8312C171.992 46.0825 172.054 46.2717 171.891 46.5201C172.015 46.7573 171.987 46.9663 171.882 47.2345C171.817 47.3954 172.077 47.5818 171.831 47.6891C172.054 47.7512 171.586 48.6378 171.569 48.8411C171.905 48.5616 171.874 49.4792 171.806 49.5696C171.944 49.6345 171.947 49.6825 171.846 49.8576C171.803 49.9282 171.846 50.0129 171.688 50.0185C171.228 50.0524 171.753 50.1908 171.29 50.4138C170.721 50.6087 171.228 50.5719 170.715 50.6934C170.679 50.9418 170.182 51.196 169.906 51.292C169.729 51.3428 169.486 51.3795 169.227 51.3061C169.055 51.3823 168.86 51.4247 168.638 51.4303C168.514 51.2016 167.705 51.4077 167.406 51.34C166.459 51.0604 166.526 51.563 166.295 51.1677C166.256 51.1677 166.213 51.1903 166.149 51.2214C165.884 51.3258 165.903 51.0802 165.571 51.2807C165.089 51.2722 164.646 51.1762 164.113 51.1225C162.67 51.2863 162.549 51.0491 161.475 51.0858C160.804 51.1338 161.156 51.179 160.629 51.0745C160.311 51.275 160.711 50.9729 159.865 51.1564C157.937 51.0039 158.682 51.2468 158.05 51.0463C157.686 51.323 157.106 50.9785 156.601 51.1028C156.023 51.1451 155.395 51.2468 154.882 51.0491C154.738 51.1141 154.775 51.2496 154.51 51.0915C154.101 51.3089 154.185 51.0632 153.844 51.083C153.478 51.3682 152.026 51.3089 151.696 51.227C151.491 51.0632 151.254 51.0124 151.048 50.8345C150.907 50.8204 150.814 50.8628 150.696 50.7216C150.428 50.3856 150.572 50.2924 150.242 50.3686L150.247 50.3715Z" fill="#B01E23"/>
<path d="M164.759 40.6274C164.804 40.5963 164.846 40.5766 164.86 40.5342C164.88 40.4721 164.911 40.4382 164.976 40.4552C164.993 40.4608 165.013 40.441 165.021 40.4241C165.044 40.3563 165.097 40.3309 165.151 40.314C165.317 40.2632 165.45 40.1163 165.616 40.0881C165.853 40.0486 166.067 39.9385 166.295 39.8679C166.377 39.8425 166.464 39.8368 166.54 39.8001C166.56 39.7916 166.6 39.7888 166.591 39.7606C166.56 39.6589 166.619 39.6533 166.684 39.6335C166.758 39.6109 166.777 39.529 166.755 39.4443C166.729 39.3455 166.735 39.2354 166.69 39.1394C166.608 39.1704 166.515 39.1817 166.453 39.2608C166.445 39.2721 166.428 39.2749 166.414 39.2777C166.25 39.3003 166.101 39.3625 165.968 39.4669C165.96 39.4726 165.949 39.4782 165.943 39.4754C165.799 39.4387 165.63 39.4839 165.52 39.3455C165.407 39.2043 165.303 39.0575 165.185 38.9192C165.058 38.7723 165.125 38.5521 165.241 38.442C165.303 38.3827 165.368 38.3177 165.461 38.2951C165.506 38.2839 165.554 38.2556 165.596 38.2161C165.661 38.154 165.731 38.0975 165.824 38.154C165.841 38.1653 165.864 38.1596 165.878 38.1455C166.019 38.01 166.205 38.0015 166.371 37.9422C166.38 37.9394 166.394 37.945 166.4 37.9422C166.509 37.8519 166.625 37.7728 166.763 37.7417C166.78 37.7389 166.803 37.705 166.805 37.6853C166.825 37.4933 166.949 37.3097 166.834 37.1036C166.805 37.0556 166.82 36.9765 166.803 36.9116C166.791 36.8664 166.78 36.8269 166.746 36.793C166.659 36.6914 166.645 36.5897 166.712 36.4711C166.8 36.3158 166.907 36.1888 167.099 36.2142C167.203 36.2283 167.313 36.1831 167.406 36.2904C167.434 36.3243 167.516 36.313 167.569 36.3102C167.657 36.3045 167.758 36.2961 167.815 36.3497C167.879 36.409 167.922 36.5078 167.95 36.6067C167.987 36.7337 167.995 36.8721 168.037 36.9963C168.08 37.1177 168.102 37.2391 168.096 37.369C168.096 37.4509 168.161 37.4791 168.206 37.513C168.308 37.5864 168.429 37.5949 168.548 37.5836C168.717 37.5695 168.889 37.5751 169.058 37.5723C169.269 37.5723 169.478 37.6373 169.684 37.6824C169.746 37.6966 169.796 37.7558 169.861 37.7728C169.892 37.7813 169.909 37.8236 169.912 37.8603C169.92 37.9479 169.971 38.0071 170.016 38.0721C170.137 38.2443 170.188 38.4448 170.205 38.6594C170.211 38.7441 170.168 38.8119 170.12 38.8655C170.016 38.9784 170.005 39.1281 169.94 39.2834C170.092 39.2834 170.219 39.2777 170.346 39.2749C170.619 39.2721 170.893 39.2636 171.169 39.2749C171.575 39.4697 171.104 40.0599 170.882 40.0938C170.822 40.1022 170.76 40.0768 170.698 40.0768C170.467 40.0768 170.239 40.105 170.008 40.1022C169.898 40.1022 169.785 40.1248 169.675 40.1446C169.576 40.1615 169.52 40.2575 169.461 40.3281C169.368 40.441 169.292 40.5738 169.232 40.7149C169.182 40.8335 169.111 40.9436 169.049 41.0566C169.041 41.0735 169.03 41.0905 169.015 41.1074C168.897 41.2458 168.925 41.4011 168.993 41.5451C169.03 41.6185 169.055 41.706 169.117 41.7653C169.134 41.7822 169.156 41.8133 169.151 41.8302C169.114 41.9573 169.201 41.9884 169.272 42.0335C169.303 42.0561 169.345 42.0702 169.334 42.1239C169.326 42.1747 169.286 42.186 169.244 42.2086C169.058 42.3102 168.875 42.2453 168.691 42.2029C168.57 42.1747 168.446 42.1775 168.325 42.1578C168.212 42.1408 168.122 42.2481 168.142 42.3695C168.153 42.4429 168.133 42.5107 168.142 42.5841C168.17 42.7648 168.237 42.8411 168.407 42.8439C168.477 42.8439 168.548 42.8411 168.618 42.8382C168.736 42.8354 168.852 42.8495 168.97 42.8637C169.218 42.8891 169.466 42.9117 169.715 42.9371C169.779 42.9455 169.841 42.9681 169.906 42.9851C169.948 42.9964 169.948 43.0331 169.951 43.0698C169.957 43.1601 169.957 43.2561 170.044 43.3126C170.058 43.3211 170.07 43.3465 170.07 43.3634C170.061 43.4566 170.118 43.499 170.18 43.5441C170.239 43.5865 170.233 43.6147 170.171 43.6571C170.081 43.7164 169.982 43.722 169.884 43.7192C169.672 43.7192 169.464 43.6938 169.252 43.6994C169.128 43.7023 169.007 43.6797 168.886 43.6684C168.641 43.643 168.398 43.643 168.159 43.7418C168.173 43.8208 168.175 43.8942 168.159 43.979C168.144 44.0524 168.153 44.1427 168.178 44.2218C168.218 44.346 168.212 44.4674 168.144 44.5832C168.111 44.6368 168.13 44.6792 168.184 44.6736C168.432 44.6453 168.68 44.6933 168.928 44.6594C168.956 44.6566 168.984 44.6538 169.013 44.6594C169.17 44.6877 169.331 44.6566 169.489 44.6623C169.658 44.6707 169.827 44.6594 169.996 44.6736C170.177 44.6905 170.354 44.6848 170.535 44.6961C170.65 44.7018 170.752 44.7611 170.865 44.7667C170.91 44.7696 170.935 44.8147 170.935 44.8684C170.935 44.9785 170.972 45.0547 171.048 45.1338C171.13 45.2157 171.183 45.3343 171.223 45.45C171.245 45.5178 171.225 45.5912 171.166 45.6251C171.048 45.6929 170.929 45.7719 170.783 45.7663C170.636 45.7606 170.49 45.7663 170.343 45.7663C170.197 45.7663 170.053 45.7296 169.906 45.738C169.757 45.7465 169.607 45.7296 169.455 45.7324C169.247 45.7324 169.041 45.7352 168.835 45.707C168.821 45.707 168.807 45.7013 168.793 45.707C168.646 45.755 168.497 45.7013 168.347 45.7126C168.232 45.7211 168.223 45.7183 168.173 45.8623C168.161 45.8905 168.136 45.8933 168.122 45.9131C168.099 45.9413 168.068 45.9667 168.122 45.9978C168.125 45.9978 168.13 46.0034 168.133 46.0063C168.037 46.122 168.159 46.2689 168.085 46.3903C168.077 46.4044 168.071 46.4185 168.065 46.4298C168.046 46.4665 168.015 46.4806 168.071 46.5371C168.142 46.6077 168.096 46.7234 168.043 46.8025C168.015 46.8449 168.02 46.8618 168.032 46.907C168.065 47.0312 168.088 47.1611 168.001 47.2712C167.927 47.3644 167.972 47.4689 167.947 47.5649C168.023 47.675 167.933 47.7823 167.936 47.8896C167.936 47.9206 167.925 47.9545 167.936 47.9912C167.947 48.0251 167.956 48.0618 167.919 48.0872C167.896 48.1042 167.891 48.1268 167.902 48.155C167.939 48.2453 167.916 48.3272 167.891 48.4204C167.871 48.4995 167.809 48.5701 167.832 48.6632C167.837 48.6886 167.817 48.7169 167.798 48.7282C167.688 48.7931 167.631 48.9145 167.55 49.0077C167.519 49.0444 167.474 49.0218 167.457 49.0557C167.42 49.1263 167.313 49.1376 167.321 49.2477C167.321 49.2703 167.293 49.307 167.271 49.3183C167.163 49.3719 167.107 49.4821 167.025 49.5639C166.96 49.6289 166.867 49.6599 166.786 49.7023C166.769 49.7108 166.752 49.6938 166.738 49.6825C166.622 49.595 166.543 49.4736 166.487 49.3409C166.462 49.2816 166.478 49.2053 166.47 49.1376C166.453 48.9682 166.464 48.7988 166.402 48.6322C166.357 48.5079 166.374 48.3611 166.369 48.2284C166.366 48.1578 166.318 48.0985 166.343 48.0195C166.36 47.9602 166.385 47.8896 166.326 47.8331C166.36 47.7371 166.326 47.6326 166.352 47.5451C166.383 47.4322 166.354 47.3192 166.377 47.2091C166.38 47.1893 166.363 47.1639 166.371 47.1498C166.456 47.0086 166.411 46.8618 166.397 46.715C166.391 46.6585 166.383 46.602 166.397 46.5456C166.433 46.3733 166.366 46.1983 166.402 46.0232C166.414 45.9696 166.374 45.9272 166.309 45.9611C166.261 45.9865 166.213 45.9667 166.163 45.9554C166.064 45.9329 165.96 45.9554 165.858 45.9809C165.762 46.0034 165.672 46.0289 165.568 46.0063C165.495 45.9893 165.424 46.0627 165.342 46.0712C165.278 46.0797 165.216 46.1531 165.145 46.0853C165.094 46.1503 165.021 46.0994 164.965 46.122C164.807 46.1842 164.638 46.1672 164.48 46.2124C164.404 46.235 164.336 46.1813 164.263 46.2124C164.195 46.2378 164.13 46.2322 164.06 46.2265C163.989 46.2209 163.908 46.2604 163.826 46.2576C163.781 46.2576 163.733 46.2547 163.713 46.2096C163.648 46.0543 163.521 45.9357 163.49 45.7634C163.459 45.5912 163.575 45.3907 163.73 45.354C163.834 45.3286 163.941 45.2976 164.046 45.2721C164.15 45.2439 164.257 45.2383 164.359 45.21C164.474 45.1761 164.587 45.1197 164.708 45.114C164.796 45.1112 164.877 45.0632 164.965 45.0886C164.984 45.0943 165.013 45.0886 165.032 45.0801C165.213 45.0096 165.407 45.0237 165.591 44.9559C165.7 44.9136 165.833 44.9164 165.954 44.9023C166.078 44.8853 166.188 44.8317 166.309 44.8063C166.383 44.7921 166.408 44.699 166.411 44.6397C166.414 44.4561 166.411 44.2698 166.425 44.0863C166.428 44.0552 166.321 43.9959 166.281 44.0157C166.185 44.0665 166.078 44.0693 165.985 44.1173C165.788 44.2133 165.585 44.2952 165.373 44.3545C165.345 44.363 165.32 44.3743 165.297 44.3884C165.227 44.4335 165.148 44.4505 165.069 44.4618C164.883 44.4928 164.75 44.4053 164.66 44.2331C164.624 44.1625 164.593 44.0863 164.533 44.0326C164.522 44.0241 164.508 44.01 164.508 43.9987C164.517 43.8971 164.471 43.7926 164.533 43.691C164.587 43.6006 164.641 43.5272 164.753 43.5385C164.784 43.5413 164.818 43.5244 164.849 43.5102C165.03 43.4312 165.218 43.3917 165.402 43.3352C165.489 43.307 165.579 43.2872 165.653 43.2307C165.703 43.1884 165.762 43.2081 165.813 43.194C165.951 43.1573 166.089 43.0952 166.222 43.0895C166.377 43.0839 166.425 43.002 166.47 42.8721C166.49 42.8157 166.498 42.7931 166.445 42.7648C166.425 42.7535 166.408 42.7168 166.436 42.7027C166.546 42.6406 166.414 42.5926 166.428 42.5248C166.439 42.4797 166.36 42.5022 166.321 42.5022C166.211 42.4966 166.126 42.57 166.027 42.6039C165.878 42.6547 165.717 42.6914 165.602 42.8157C165.509 42.9145 165.396 42.9625 165.283 43.0189C165.261 43.0302 165.238 43.0415 165.216 43.0302C165.106 42.9738 164.97 42.9597 164.906 42.8326C164.852 42.7253 164.759 42.6547 164.717 42.5333C164.635 42.2989 164.765 42.1662 164.917 42.0928C164.973 42.0646 165.027 42.0392 165.072 41.9912C165.14 41.9206 165.23 41.8924 165.311 41.8613C165.585 41.7596 165.847 41.6128 166.14 41.5705C166.264 41.5507 166.383 41.4829 166.509 41.466C166.535 41.4632 166.56 41.4462 166.563 41.4208C166.577 41.2796 166.619 41.1385 166.563 40.9973C166.546 40.9549 166.529 40.9323 166.49 40.9549C166.402 41.0086 166.281 40.9945 166.216 41.1018C166.202 41.1272 166.163 41.1215 166.14 41.1328C166.073 41.1695 165.988 41.1723 165.937 41.2542C165.903 41.3079 165.839 41.3361 165.779 41.3474C165.622 41.3728 165.478 41.4462 165.331 41.5027C165.238 41.5394 165.137 41.5959 165.044 41.4914C165.035 41.4829 165.018 41.4773 165.004 41.4773C164.908 41.4745 164.863 41.418 164.827 41.3192C164.793 41.2232 164.751 41.1328 164.722 41.034C164.694 40.9352 164.638 40.8392 164.697 40.7319C164.643 40.7149 164.621 40.746 164.612 40.7714C164.579 40.8646 164.502 40.8872 164.429 40.9295C164.328 40.986 164.209 41.0199 164.139 41.13C164.116 41.1667 164.077 41.178 164.046 41.1978C163.905 41.2796 163.792 41.3982 163.677 41.5168C163.614 41.5818 163.603 41.6636 163.629 41.7512C163.66 41.8528 163.696 41.9545 163.626 42.0561C163.62 42.0646 163.62 42.0759 163.62 42.0844C163.657 42.4119 163.603 42.7366 163.603 43.0641C163.603 43.0698 163.603 43.0754 163.603 43.0782C163.626 43.194 163.609 43.3069 163.6 43.4227C163.584 43.6119 163.6 43.8039 163.589 43.9931C163.578 44.1794 163.561 44.3686 163.533 44.555C163.479 44.9051 163.414 45.2552 163.42 45.611C163.423 45.834 163.395 46.0486 163.369 46.2689C163.341 46.506 163.352 46.746 163.341 46.986C163.33 47.2373 163.304 47.4886 163.293 47.7399C163.288 47.9376 163.242 48.1352 163.271 48.3329C163.285 48.4204 163.257 48.5051 163.251 48.5898C163.248 48.6491 163.172 48.7112 163.118 48.7564C163.062 48.8016 163.025 48.8524 163.003 48.9258C162.986 48.9795 162.958 49.0218 162.91 49.0557C162.831 49.1094 162.769 49.1828 162.752 49.2901C162.746 49.3352 162.735 49.3889 162.687 49.403C162.634 49.4171 162.588 49.3889 162.549 49.3437C162.377 49.1291 162.295 48.8778 162.29 48.5926C162.29 48.4769 162.301 48.3611 162.276 48.2425C162.25 48.1211 162.301 47.9997 162.321 47.8811C162.346 47.7371 162.369 47.5903 162.354 47.4435C162.343 47.339 162.374 47.2402 162.377 47.1385C162.38 47.0002 162.363 46.8618 162.354 46.7234C162.343 46.5484 162.377 46.379 162.374 46.2067C162.374 45.93 162.391 45.6561 162.433 45.3823C162.476 45.114 162.473 44.8373 162.495 44.5663C162.501 44.4957 162.518 44.4251 162.532 44.3545C162.566 44.1823 162.532 44.0072 162.555 43.8321C162.577 43.6317 162.597 43.4284 162.594 43.2222C162.594 43.1771 162.594 43.1291 162.588 43.0867C162.572 42.9935 162.577 42.9004 162.605 42.8185C162.636 42.7253 162.605 42.6378 162.628 42.5474C162.634 42.5192 162.634 42.4712 162.594 42.4542C162.555 42.4401 162.535 42.474 162.512 42.4994C162.301 42.7394 162.073 42.9653 161.867 43.2109C161.661 43.4538 161.469 43.7079 161.28 43.9648C161.078 44.2415 160.875 44.5211 160.705 44.826C160.635 44.9559 160.548 45.083 160.511 45.2326C160.5 45.2721 160.471 45.2919 160.438 45.2891C160.398 45.2863 160.381 45.2439 160.384 45.21C160.39 45.1281 160.395 45.0434 160.415 44.9672C160.452 44.8232 160.494 44.682 160.556 44.5465C160.68 44.2754 160.79 43.9959 160.92 43.7277C161.021 43.5187 161.14 43.3182 161.252 43.1178C161.396 42.8637 161.551 42.6152 161.712 42.3752C161.87 42.1436 162.022 41.9093 162.188 41.6862C162.253 41.5987 162.323 41.5168 162.377 41.4208C162.377 41.418 162.385 41.4152 162.388 41.4095C162.442 41.2119 162.619 41.13 162.727 40.9832C162.817 40.8561 162.932 40.7573 163.02 40.6274C163.113 40.489 163.254 40.3902 163.361 40.2632C163.44 40.17 163.538 40.1022 163.609 40.0006C163.66 39.93 163.736 39.8707 163.801 39.8057C163.86 39.7465 163.916 39.6787 163.981 39.6279C164.066 39.5629 164.156 39.5065 164.26 39.4923C164.395 39.4754 164.542 39.5629 164.604 39.6928C164.61 39.7013 164.61 39.7126 164.615 39.721C164.697 39.8001 164.725 39.8961 164.748 40.0175C164.779 40.1728 164.782 40.3168 164.753 40.4693C164.742 40.5286 164.717 40.5879 164.748 40.6641L164.759 40.6274ZM168.649 38.5436C168.539 38.6086 168.359 38.4787 168.28 38.6848C168.198 38.6848 168.215 38.7469 168.212 38.8006C168.209 38.8401 168.206 38.8853 168.19 38.9192C168.164 38.97 168.142 38.9982 168.212 39.0321C168.249 39.049 168.257 39.1196 168.212 39.145C168.144 39.1817 168.144 39.2326 168.181 39.2806C168.221 39.3286 168.221 39.4189 168.271 39.4274C168.339 39.4387 168.412 39.4669 168.48 39.45C168.604 39.4161 168.731 39.3992 168.855 39.3653C168.953 39.3399 169.041 39.2834 169.035 39.145C169.035 39.1055 169.052 39.0801 169.072 39.049C169.097 39.0123 169.131 38.97 169.131 38.9276C169.131 38.8147 169.17 38.7187 169.213 38.6227C169.238 38.5606 169.201 38.5323 169.156 38.5239C169.117 38.5154 169.072 38.5295 169.03 38.5295C168.908 38.5352 168.787 38.538 168.652 38.5408L168.649 38.5436ZM168.164 40.9182C168.167 41.0312 168.223 41.1893 168.271 41.2458C168.316 41.2966 168.361 41.2881 168.415 41.2683C168.463 41.2514 168.466 41.2119 168.457 41.1695C168.446 41.0989 168.463 41.0368 168.502 40.9803C168.528 40.9465 168.539 40.9098 168.548 40.8674C168.587 40.6952 168.59 40.5116 168.66 40.345C168.672 40.3225 168.672 40.2942 168.652 40.2745C168.626 40.249 168.598 40.2547 168.573 40.2745C168.528 40.3083 168.477 40.314 168.423 40.3196C168.359 40.3253 168.308 40.3733 168.257 40.4043C168.218 40.4298 168.147 40.5032 168.17 40.5681C168.212 40.681 168.201 40.7827 168.161 40.8872C168.159 40.8956 168.161 40.9069 168.161 40.9182H168.164Z" fill="white"/>
<path d="M156.596 39.2017C156.627 39.2102 156.635 39.1593 156.663 39.1763C156.691 39.196 156.672 39.2243 156.666 39.2497C156.641 39.388 156.624 39.5292 156.596 39.6704C156.579 39.7523 156.587 39.8229 156.587 39.9019C156.587 39.9838 156.55 40.0685 156.553 40.1504C156.556 40.2944 156.553 40.4441 156.615 40.5796C156.627 40.605 156.624 40.6276 156.621 40.6558C156.615 40.7349 156.672 40.7914 156.751 40.7998C156.782 40.8026 156.815 40.8111 156.846 40.8196C156.911 40.8394 156.976 40.8563 157.035 40.7942C157.044 40.7857 157.075 40.7829 157.08 40.7885C157.134 40.8648 157.204 40.8111 157.264 40.8224C157.419 40.8563 157.574 40.8281 157.729 40.845C157.957 40.8704 157.847 40.8591 158.073 40.8563C158.16 40.8563 158.247 40.8563 158.335 40.8732C158.419 40.8902 158.512 40.8874 158.603 40.8958C158.791 40.9128 158.665 40.8987 158.853 40.9241C158.915 40.9325 158.975 40.8845 159.042 40.8902C159.093 40.8958 159.138 40.9099 159.183 40.9297C159.313 40.9834 159.434 41.0709 159.575 41.0907C159.606 41.0963 159.637 41.1132 159.665 41.133C159.696 41.1556 159.727 41.1754 159.767 41.1782C159.86 41.1867 159.95 41.2008 159.998 41.3109C160.006 41.3278 160.04 41.3363 160.063 41.3419C160.105 41.3532 160.144 41.3674 160.153 41.421C160.164 41.4859 160.116 41.5029 160.08 41.5311C160.054 41.5509 160.02 41.5622 160.006 41.5989C160.094 41.7372 160.128 41.8982 160.176 42.0535C160.19 42.0987 160.173 42.1297 160.142 42.158C160.054 42.2398 159.956 42.3104 159.888 42.4177C159.871 42.446 159.837 42.4629 159.809 42.477C159.688 42.5307 159.558 42.573 159.429 42.5391C159.324 42.5109 159.217 42.5165 159.113 42.5052C158.859 42.4827 158.603 42.4911 158.346 42.4544C158.312 42.4488 158.6 42.446 158.572 42.4685C158.543 42.4911 158.515 42.494 158.481 42.4685C158.442 42.4375 158.405 42.4827 158.363 42.4827C158.284 42.4798 158.199 42.4883 158.123 42.4742C157.98 42.446 158.177 42.4347 158.036 42.4516C158.025 42.4516 158.011 42.4601 157.999 42.4516C157.918 42.4121 157.833 42.4347 157.748 42.4403C157.571 42.4544 157.393 42.4403 157.216 42.4742C157.182 42.4827 157.148 42.4488 157.12 42.4572C156.97 42.5165 156.796 42.4855 156.663 42.6097C156.649 42.621 156.641 42.6323 156.635 42.6493C156.598 42.7594 156.584 42.8808 156.503 42.9711C156.483 42.9937 156.474 43.053 156.488 43.0869C156.517 43.166 156.494 43.2337 156.483 43.3071C156.48 43.3297 156.483 43.3523 156.457 43.3608C156.432 43.3693 156.426 43.3862 156.435 43.4116C156.466 43.5048 156.438 43.5923 156.429 43.6827C156.415 43.8154 156.387 43.9481 156.39 44.0808C156.395 44.3123 156.381 44.541 156.376 44.7697C156.37 44.9674 156.359 45.1679 156.376 45.3683C156.39 45.5264 156.362 45.6874 156.35 45.8455C156.336 46.0488 156.319 46.2521 156.305 46.4554C156.302 46.4978 156.311 46.5429 156.283 46.5825C156.269 46.5994 156.266 46.6389 156.274 46.6587C156.314 46.749 156.305 46.8394 156.3 46.9326C156.291 47.1218 156.302 47.3109 156.252 47.4945C156.246 47.5171 156.235 47.5396 156.246 47.5594C156.294 47.6385 156.26 47.7006 156.223 47.7683C156.207 47.8022 156.184 47.8446 156.198 47.8813C156.218 47.9378 156.198 47.9858 156.19 48.0366C156.181 48.0902 156.184 48.1495 156.181 48.206C156.271 48.2371 156.147 48.3076 156.204 48.3472C156.232 48.3669 156.215 48.398 156.204 48.4178C156.13 48.5279 156.17 48.638 156.204 48.7481C156.215 48.7876 156.229 48.8244 156.243 48.8611C156.252 48.8808 156.26 48.9034 156.243 48.9232C156.161 49.0277 156.142 49.1575 156.116 49.2846C156.105 49.3354 156.071 49.3693 156.029 49.3919C155.958 49.4314 155.888 49.4568 155.809 49.471C155.657 49.502 155.505 49.5415 155.372 49.6404C155.35 49.6573 155.319 49.6573 155.29 49.6686C155.226 49.694 155.189 49.5754 155.107 49.6404C155.054 49.6827 154.978 49.6121 154.907 49.6262C154.896 49.6262 154.879 49.6206 154.873 49.6121C154.8 49.5048 154.684 49.4314 154.656 49.2902C154.648 49.2507 154.642 49.2112 154.651 49.1717C154.67 49.0869 154.656 49.0079 154.636 48.926C154.614 48.8244 154.617 48.7227 154.665 48.6267C154.67 48.6154 154.684 48.6013 154.682 48.5928C154.645 48.4997 154.713 48.4347 154.727 48.3556C154.78 48.0789 154.82 47.7994 154.82 47.5142C154.82 47.3872 154.853 47.2573 154.814 47.1302C154.853 46.8676 154.814 46.605 154.808 46.3453C154.803 46.0206 154.797 45.6959 154.803 45.3712C154.808 45.134 154.78 44.8996 154.797 44.6653C154.817 44.397 154.791 44.1316 154.789 43.8662C154.786 43.6855 154.791 43.5048 154.791 43.3269C154.791 43.1885 154.791 43.0417 154.744 42.9062C154.727 42.8554 154.744 42.7961 154.707 42.7453C154.67 42.6973 154.631 42.6718 154.583 42.6803C154.417 42.7085 154.245 42.6775 154.078 42.734C154.039 42.7481 153.997 42.7537 153.957 42.7509C153.867 42.7453 153.78 42.7707 153.692 42.7904C153.574 42.8158 153.45 42.8271 153.326 42.8271C153.179 42.8271 153.035 42.8695 152.892 42.8751C152.832 42.8751 152.773 42.9005 152.711 42.8667C152.677 42.8497 152.618 42.8384 152.593 42.8582C152.463 42.957 152.308 42.8949 152.173 42.9542C152.054 43.005 151.925 43.0078 151.792 42.9965C151.733 42.9909 151.665 42.9796 151.603 43.022C151.516 43.0813 151.403 43.0474 151.307 43.0982C151.234 43.0191 151.178 43.1038 151.116 43.1208C151.028 43.1462 150.941 43.1434 150.854 43.1518C150.71 43.166 150.597 43.1038 150.479 43.0558C150.462 43.0474 150.434 43.0333 150.431 43.0191C150.417 42.9288 150.341 42.8977 150.295 42.8356C150.278 42.8102 150.25 42.7904 150.242 42.7622C150.216 42.6747 150.163 42.6069 150.115 42.5335C150.047 42.4318 150.008 42.3217 150.033 42.1947C150.053 42.1043 150.061 42.014 150.067 41.9236C150.07 41.8728 150.095 41.8445 150.138 41.8248C150.245 41.774 150.352 41.7203 150.467 41.6892C150.501 41.6808 150.546 41.6808 150.566 41.6441C150.634 41.5198 150.752 41.5537 150.848 41.5368C150.927 41.5255 151.009 41.5311 151.088 41.5001C151.206 41.4521 151.333 41.4464 151.454 41.4182C151.603 41.3843 151.758 41.3532 151.911 41.3307C152.023 41.3137 152.139 41.2855 152.255 41.2657C152.379 41.2431 152.497 41.1951 152.627 41.1979C152.683 41.1979 152.737 41.1697 152.793 41.1612C152.982 41.1387 153.173 41.1132 153.365 41.0991C153.596 41.0822 153.822 41.037 154.053 41.0201C154.149 41.0144 154.25 41.0088 154.346 40.9749C154.433 40.9438 154.529 40.9438 154.622 40.9297C154.642 40.9297 154.667 40.9297 154.679 40.9099C154.704 40.8535 154.758 40.8252 154.786 40.7829C154.822 40.7292 154.848 40.6445 154.828 40.5683C154.803 40.4666 154.82 40.3763 154.865 40.2888C154.87 40.2775 154.879 40.2577 154.876 40.2521C154.789 40.1561 154.87 40.0516 154.865 39.9499C154.859 39.8257 154.865 39.6986 154.882 39.5716C154.904 39.3965 154.935 39.2158 154.932 39.0351C154.932 39.0125 154.938 38.9928 154.944 38.9702C155.003 38.7358 155.056 38.4986 155.068 38.253C155.124 38.1655 155.121 38.061 155.141 37.965C155.166 37.8407 155.195 37.7137 155.214 37.5866C155.228 37.4878 155.22 37.3862 155.234 37.2902C155.262 37.1207 155.22 36.9457 155.274 36.7763C155.344 36.5645 155.448 36.4911 155.648 36.5447C155.713 36.5617 155.767 36.5645 155.826 36.5334C155.919 36.4883 156.018 36.5137 156.114 36.5165C156.122 36.5165 156.133 36.5165 156.136 36.5221C156.192 36.621 156.291 36.5899 156.373 36.6153C156.469 36.6464 156.556 36.6944 156.598 36.8017C156.607 36.8243 156.629 36.8412 156.646 36.861C156.717 36.9372 156.748 37.0332 156.745 37.1405C156.745 37.2365 156.756 37.341 156.745 37.4313C156.725 37.5923 156.739 37.756 156.708 37.917C156.674 38.0949 156.649 38.2756 156.624 38.4563C156.618 38.4958 156.618 38.5382 156.624 38.5749C156.652 38.7245 156.621 38.8629 156.584 39.004C156.57 39.0577 156.581 39.1198 156.581 39.1848L156.596 39.2017Z" fill="white"/>
<path d="M163.257 37.2085C163.299 37.2311 163.313 37.2169 163.333 37.2113C163.409 37.1944 163.479 37.1972 163.524 37.2847C163.553 37.3355 163.606 37.3553 163.648 37.3864C163.792 37.4965 163.871 37.6631 163.973 37.8099C164.04 37.9059 164.035 38.0414 164.063 38.1628C164.068 38.1826 164.054 38.2024 164.04 38.2165C163.981 38.273 163.964 38.3577 163.939 38.4339C163.891 38.5694 163.817 38.6711 163.702 38.7445C163.496 38.88 163.302 39.0438 163.144 39.2358C162.913 39.5125 162.667 39.7694 162.422 40.032C162.371 40.0885 162.312 40.1365 162.245 40.1563C162.09 40.2043 161.991 40.32 161.895 40.4527C161.794 40.5911 161.689 40.7294 161.579 40.8621C161.393 41.0824 161.179 41.2829 161.075 41.5793C161.03 41.7036 160.968 41.8193 160.959 41.9549C160.954 42.0339 160.906 42.096 160.872 42.1582C160.81 42.2796 160.66 42.2542 160.587 42.1384C160.519 42.0339 160.528 41.9464 160.573 41.8391C160.621 41.729 160.652 41.6076 160.694 41.4946C160.793 41.232 160.917 40.9864 161.044 40.7379C161.176 40.4781 161.295 40.2099 161.427 39.953C161.534 39.744 161.658 39.5435 161.771 39.3374C161.87 39.1567 161.965 38.9732 162.061 38.7925C162.101 38.7162 162.16 38.6541 162.208 38.5864C162.278 38.4904 162.349 38.3887 162.394 38.2701C162.433 38.1657 162.495 38.0668 162.543 37.9652C162.594 37.8635 162.684 37.7901 162.727 37.6828C162.735 37.6602 162.752 37.6405 162.76 37.6179C162.803 37.5191 162.825 37.4033 162.961 37.4089C162.986 37.4089 162.992 37.3751 163.006 37.3553C163.076 37.2649 163.175 37.2424 163.251 37.2113L163.257 37.2085Z" fill="white"/>
<path d="M153.898 37.7222C153.878 37.8916 153.884 38.0638 153.923 38.2333C153.937 38.2925 153.853 38.4648 153.811 38.4874C153.777 38.5043 153.599 38.4676 153.571 38.4365C153.484 38.3377 153.362 38.2841 153.281 38.1768C153.255 38.1429 153.216 38.1344 153.179 38.1288C153.066 38.1147 152.973 38.0554 152.889 37.9848C152.841 37.9452 152.787 37.9678 152.742 37.9368C152.655 37.8775 152.567 37.8097 152.511 37.7137C152.497 37.6883 152.483 37.6657 152.46 37.677C152.398 37.7109 152.37 37.6572 152.328 37.629C152.269 37.5895 152.224 37.5189 152.145 37.5217C152.111 37.5217 152.108 37.4878 152.094 37.4596C152.049 37.3523 152.046 37.2281 151.987 37.1264C151.981 37.1179 151.978 37.1067 151.981 37.0954C152.015 36.9259 151.987 36.7226 152.122 36.6041C152.209 36.5278 152.317 36.4488 152.443 36.4544C152.466 36.4544 152.491 36.4685 152.511 36.4544C152.584 36.3923 152.658 36.3245 152.762 36.381C152.965 36.3245 153.126 36.4234 153.266 36.5645C153.337 36.6351 153.402 36.7142 153.484 36.7763C153.782 37.005 153.878 37.3438 153.901 37.7222H153.898Z" fill="white"/>
<path d="M150.983 39.4246C150.989 39.3117 150.966 39.1761 151.042 39.0575C151.071 39.0152 151.096 38.9841 151.149 38.97C151.242 38.9418 151.341 38.9135 151.412 38.8345C151.429 38.8147 151.454 38.8034 151.476 38.8091C151.643 38.8514 151.818 38.795 151.984 38.8486C152.026 38.8627 152.074 38.8486 152.108 38.9022C152.13 38.9418 152.187 38.922 152.226 38.9277C152.3 38.9361 152.381 38.9164 152.426 39.0067C152.441 39.0378 152.477 39.0265 152.505 39.0321C152.55 39.0378 152.579 39.0632 152.567 39.114C152.556 39.1677 152.567 39.1987 152.621 39.2185C152.708 39.2524 152.722 39.3568 152.767 39.4274C152.925 39.6759 153.092 39.9159 153.266 40.1531C153.303 40.2039 153.362 40.2576 153.328 40.3281C153.292 40.4044 153.221 40.4383 153.142 40.4496C153.075 40.458 153.01 40.4496 152.948 40.427C152.77 40.3677 152.584 40.3733 152.404 40.3649C152.114 40.3536 151.834 40.3253 151.561 40.2011C151.502 40.1757 151.434 40.1672 151.369 40.1361C151.2 40.0486 151.127 39.8651 151.006 39.7352C150.983 39.7098 150.986 39.6787 150.986 39.6477C150.986 39.5799 150.986 39.515 150.986 39.4274L150.983 39.4246Z" fill="white"/>
</g>
</svg>
