<svg width="173" height="56" viewBox="0 0 173 56" fill="none" xmlns="http://www.w3.org/2000/svg">
<path d="M5.28489 33.0095C5.66544 33.1874 5.27643 32.8034 6.06571 32.8909C6.53083 32.3008 6.63231 31.5045 6.82399 30.6349C7.07487 28.9803 7.16789 26.9275 9.24821 28.9464C9.34968 30.0278 8.94659 31.0132 8.72954 32.0918C8.9043 32.6452 8.6788 32.7695 9.53855 32.5888C10.4547 32.5323 11.3962 32.4589 12.2531 32.0184C12.7915 31.4311 12.5604 30.5304 13.1833 30.1633C13.189 30.073 13.0959 30.1266 13.079 30.0617C14.931 27.4725 13.3299 26.9699 15.9712 27.224C19.0663 27.9864 16.6336 31.3831 16.0839 33.3596C15.7118 34.9323 14.8408 36.3864 14.6153 38.1145C14.2601 38.2472 14.3701 38.8288 14.2207 39.1846C14.0769 39.3032 13.9839 39.5178 14.1699 39.7323C13.8599 39.8058 13.7697 40.2236 13.499 40.3902C12.9296 40.3676 13.1721 40.6472 12.4222 40.2886C12.0022 40.5286 11.9289 40.6048 11.3849 40.5004C11.2017 40.4524 11.3511 40.0938 11.0805 40.1192C9.93601 39.2213 10.1474 38.1257 10.2263 36.7563C10.4406 36.5446 10.2235 36.3215 10.5759 36.025C10.7591 35.7596 11.3426 34.746 10.5702 35.0255C10.2207 35.0198 9.89936 34.8363 9.47089 35.0876C9.16082 35.065 8.80283 35.1695 8.40255 35.2288C8.2165 35.1497 8.04455 35.3813 7.75139 35.3954C7.79086 35.5253 7.8867 35.6297 7.81059 35.8669C7.55407 36.4909 8.16576 37.1601 8.03892 37.9224C7.66401 38.3742 7.59072 38.9474 7.17634 39.4218C6.49418 40.1248 6.11645 40.9719 5.50476 41.5112C5.19751 42.2171 4.43641 42.6208 3.78808 43.1319C3.66123 43.05 3.32015 42.9455 3.20457 43.2053C3.03826 42.923 2.11368 43.0585 2.13905 42.7225C1.79796 42.6773 1.62037 42.1691 1.25392 41.9545C0.972037 41.6693 1.01714 41.0425 0.780355 40.7121C1.18345 40.0571 0.676057 39.1563 0.678876 38.4561C0.788812 37.7615 0.188395 37.0528 0.450549 36.2791C0.134837 36.1719 0.512564 36.138 0.402628 35.8584C0.267323 35.5817 0.174301 35.1271 0.391353 34.8815C0.0249012 34.3704 0.343432 33.6137 0.132018 33.001C0.0981915 32.6706 0.340613 32.3488 0.109467 31.9648C-0.772836 29 3.97412 30.889 3.7768 32.7751C3.8811 32.8429 3.87828 33.2862 4.09533 33.2777C4.30393 33.0914 5.23415 33.2636 5.29053 33.0066L5.28489 33.0095ZM4.36876 35.449C4.38849 35.6834 4.0305 35.5535 3.96285 35.8104C4.0305 36.313 3.80781 36.4881 4.23909 37.1262C4.09251 37.2137 4.36594 38.0919 4.583 37.4481C4.85924 37.1319 5.361 37.2476 5.73591 36.9483C6.13901 35.514 6.18974 35.1723 4.60273 35.5196C4.48997 35.6297 4.43923 35.5337 4.36876 35.449Z" fill="#1E1E1E"/>
<path d="M43.6355 35.065C43.5566 34.0739 44.8307 33.4528 42.8209 33.9158C41.9386 34.0429 41.4058 34.1784 40.5883 34.5144C40.5996 34.5963 40.6616 34.5906 40.7293 34.5878C40.3515 35.0989 40.5489 36.7394 39.9203 37.177C39.5792 37.3097 39.5087 37.8151 39.0718 37.9789C38.742 38.6029 38.1077 38.7921 37.9245 39.5432C37.3241 40.5653 37.2057 40.4015 36.267 39.9385C35.7765 39.7832 35.1818 39.4274 34.9985 38.7554C34.8914 37.3408 34.3784 35.8415 34.0091 34.4636C34.0824 33.9328 33.0761 28.7092 34.9675 29.8894C36.2586 30.4937 35.9964 32.0777 36.3741 33.1139C36.1712 33.4753 38.2487 32.9135 38.4516 32.7469C39.1113 32.7638 39.1084 31.7897 39.1423 31.1064C39.1986 30.313 39.396 29.672 39.2973 28.7741C39.348 27.7435 40.8364 28.4297 41.2846 28.9859C41.6116 29.5901 41.2959 30.1718 41.2536 30.8494C41.0619 31.9506 40.5714 32.2782 42.0598 31.8405C42.429 31.8857 43.1789 31.7953 43.4636 31.4509C43.8328 31.5666 44.0978 31.3351 44.515 31.2278C44.9209 30.8523 45.1295 30.5276 45.2423 29.9459C45.4988 29.7793 45.713 29.6579 45.6877 29.2993C45.8878 29.1835 45.9808 28.921 46.0541 28.633C46.0823 28.345 46.398 28.3252 46.3275 27.9722C46.2063 27.5544 46.7955 26.9162 47.2324 27.2861C47.8413 27.1534 48.5234 27.4301 48.8504 28.1021C49.479 29.4179 48.0499 30.4457 47.8948 31.8236C47.5058 32.4335 48.095 32.5831 47.6411 33.2043C46.5897 34.6669 46.2627 37.0754 45.5298 38.8712C44.9942 40.0119 45.8032 39.4528 44.6278 40.7545C44.3149 40.698 43.9653 40.7065 43.6383 40.5003C43.2409 40.0288 42.15 39.258 42.4516 38.5295C42.3586 38.185 42.6602 38.0241 42.8519 37.6203C42.8462 37.273 42.959 37.0895 43.1507 36.7676C43.1169 36.2114 43.6017 35.7681 43.4946 35.113C43.4946 35.0763 43.5199 35.0594 43.6271 35.0678L43.6355 35.065ZM36.6786 35.3078C36.8984 35.4208 36.5123 36.8947 37.0309 36.6942C37.6144 35.9572 38.5418 36.1154 38.773 34.7431C38.0683 34.9012 37.4481 35.0368 36.6786 35.3078Z" fill="#1E1E1E"/>
<path d="M30.4969 38.7243C30.5363 38.7469 30.4969 38.8232 30.5448 38.857C30.6434 38.4053 31.0747 38.953 31.3143 38.7978C31.895 38.7469 32.6505 39.1535 33.2593 39.5629C33.6596 39.9356 34.3587 42.1973 33.5018 42.3554C31.7794 42.3159 30.2911 42.4881 28.5998 42.6999C28.1234 42.5983 28.27 43.3211 28.0952 43.5978C27.8669 43.9649 27.802 44.4787 27.5709 44.9136C27.3341 45.4077 27.1791 45.8369 27.0776 46.4722C26.6463 47.7089 26.4743 49.3183 26.0177 50.651C24.9183 51.947 23.8444 50.2247 23.4328 48.9851C23.6696 47.963 24.0924 47.0962 24.5068 46.0769C24.5434 45.6533 24.4786 44.9446 24.8986 44.6453C24.8591 44.2133 25.0057 43.7192 25.1805 43.2533C23.3313 43.3211 20.1714 45.45 18.6238 43.5724C18.1954 43.2251 17.4963 42.5728 18.0601 42.0251C18.6577 41.7145 19.3455 41.8811 19.9938 41.4462C21.1382 41.0368 21.8768 40.5201 23.0635 40.2999C23.4328 40.0542 23.3962 40.0486 23.9007 39.9667C24.3179 39.7549 24.535 39.69 25.079 39.6928C25.1918 39.6448 25.3412 39.3003 25.4793 39.5996C26.1023 39.4331 26.6097 39.1366 27.2777 39.0095C27.5596 39.3455 27.7541 38.8712 28.098 38.9389C28.2587 38.9587 27.9542 39.2806 28.4504 39.018C28.7576 38.97 28.8422 39.1563 29.1128 38.8316C29.5497 38.9643 29.9669 38.8345 30.494 38.7272L30.4969 38.7243Z" fill="#1E1E1E"/>
<path d="M7.26661 43.0726C7.07775 43.0302 7.15386 42.5361 7.43292 42.4994C7.35963 42.4091 7.26097 42.426 7.21305 42.3413C7.52877 41.6269 7.21024 39.8594 8.66477 40.5766C10.5055 40.9606 9.76694 42.3328 10.2377 42.6378C14.6577 42.6124 13.2482 42.09 14.6041 38.5323C14.7394 37.5017 15.5766 38.0015 16.084 38.473C17.1975 39.3568 15.8049 40.7742 16.1122 41.8726C16.1291 41.9601 15.9741 41.9404 15.9205 42.1069C15.6273 43.9987 15.1622 45.7634 14.9142 47.7851C14.3222 48.8778 13.9022 48.2651 13.1439 48.9173C12.8733 49.0726 12.7352 49.2336 12.3716 49.3042C12.0615 49.6289 11.8473 49.9847 11.3399 50.1315C11.2215 50.2868 11.0382 50.3432 10.8099 50.4364C10.7028 50.5381 10.404 50.8684 10.1954 50.7329C10.1362 51.1028 9.65419 51.3117 9.23981 51.436C8.82544 51.4105 8.95511 51.3456 8.55201 51.1621C8.34342 51.1931 8.35187 51.1931 8.27295 50.8684C8.20247 50.8402 8.24476 50.9249 8.15455 50.9701C7.83884 50.7442 7.62743 50.4675 7.32581 50.075C6.83251 49.8265 7.10312 49.0642 7.08339 48.5446C7.14258 47.675 6.89452 46.7827 7.13413 45.9074C6.96781 45.6392 7.02137 45.4444 7.17077 45.1874C6.9509 44.7498 7.08621 44.2726 7.15668 43.722C7.15104 43.5385 7.04392 43.242 7.27225 43.0726H7.26661ZM10.8494 46.6472C11.3032 46.0994 12.194 45.8933 12.7775 45.402C12.9241 44.7837 12.9663 44.4787 12.2081 44.7893C11.9346 44.8797 11.5287 44.8401 11.2102 44.7893C11.0213 45.1733 10.5196 44.8401 10.2518 45.3512C9.9699 45.594 10.0996 47.387 10.762 46.4439C10.8607 46.4947 10.762 46.5907 10.8494 46.6472Z" fill="#1E1E1E"/>
<path d="M26.4659 28.7092C26.6209 29.017 27.6639 28.5031 28.5377 28.5991C28.766 28.5765 28.9549 28.297 29.3044 28.4438C31.0606 29.1638 31.2156 30.457 30.3812 32.2217C30.291 32.8401 30.1416 33.4641 29.7583 34.0401C30.0063 34.3789 29.3467 35.1102 28.9464 35.1243C26.8689 35.2542 25.0762 37.3098 23.0719 38.2641C22.3785 38.1879 21.9529 37.6938 21.6259 37.1262C21.4314 37.033 21.3383 36.9088 21.3073 36.6575C21.0621 36.5728 21.0536 36.4796 21.0903 36.1352C21.2651 34.3337 21.0762 32.6198 21.2622 30.8156C21.3355 30.1775 21.3778 30.0448 22.1079 29.9008C22.3644 29.624 22.8549 29.641 23.1565 29.3982C23.8133 29.2796 24.4109 29.0876 25.141 28.9887C25.3834 28.9605 26.3418 29.0509 26.4715 28.7064L26.4659 28.7092ZM28.1684 30.8382C26.6604 31.2194 24.6336 30.9822 23.2524 31.6231C23.134 31.8998 23.2777 34.458 23.6329 34.4608C24.6308 34.1813 25.8513 33.5262 26.9 33.2523C27.8725 33.0405 28.0106 31.7954 28.1684 30.8353V30.8382Z" fill="#1E1E1E"/>
<path d="M41.4199 50.7132C40.9041 50.7894 40.5602 50.4477 40.0951 50.171C39.1789 49.7193 39.551 48.5927 39.5792 47.644C39.427 47.0199 39.4467 46.4919 39.4862 45.8482C39.303 45.7691 39.2551 44.298 39.4777 43.8915C39.5144 42.5051 38.432 40.7827 40.5235 40.9663C42.6969 42.7931 39.5482 43.4227 43.7737 42.539C44.3149 42.3018 44.8082 42.4458 45.3212 42.0872C45.5214 42.0731 45.7215 42.2425 45.8653 41.9432C46.1923 40.8646 46.632 39.8368 47.0041 38.6679C47.3818 38.3149 48.5545 39.0575 48.4671 39.5912C48.298 40.5879 47.9259 41.3559 47.6045 42.3893C47.5284 42.7733 47.4382 43.0783 47.5453 43.5131C47.2973 43.6712 47.162 43.9395 46.99 44.2331C46.4488 45.2439 47.9456 45.2185 45.262 47.0962C44.3149 47.9856 43.255 48.7875 42.2994 49.7362C41.9583 49.9649 41.9273 50.7499 41.4143 50.716L41.4199 50.7132ZM45.2198 44.1653C44.064 44.4336 42.4347 44.4788 41.496 45.1338C41.5073 45.2016 41.6032 45.1677 41.5919 45.2411C41.2226 45.6279 41.5496 46.4072 41.5947 46.9832C42.291 46.6726 42.8181 46.1559 43.5003 45.6985C43.9795 45.4783 44.2952 45.2919 44.6532 44.874C44.9632 44.6905 45.1718 44.6284 45.2198 44.1653Z" fill="#1E1E1E"/>
<path d="M57.2168 38.1766C57.1999 38.041 57.1745 37.8857 57.3606 37.818C58.2429 36.6208 58.7756 35.2373 59.5029 33.8452C59.6044 33.3624 59.9257 32.7808 60.1681 32.1906C60.4303 31.4848 60.7855 30.9031 60.9884 30.0645C61.0279 29.7003 60.9095 29.2909 61.1886 28.9153C61.7411 28.3845 61.6988 28.8137 62.2682 28.8927C63.19 28.9097 64.0553 29.6382 63.8129 30.7055C62.8827 33.5008 61.9497 36.217 60.7178 38.8542C59.9257 41.7145 59.0378 42.6237 56.8137 39.8566C56.8954 39.5827 56.5882 39.3822 56.6981 39.0716C56.9434 38.8881 56.8419 38.2189 57.214 38.1766H57.2168Z" fill="#1E1E1E"/>
<path d="M57.7495 45.4726C57.8876 45.6985 58.7473 45.2326 58.9785 45.1762C59.7199 45.0435 60.4866 44.8006 61.1885 44.6199C61.6254 44.6566 61.6451 44.3065 62.1046 44.1907C62.6543 44.1597 63.2378 44.3404 63.6944 44.7159C64.2131 44.891 65.0052 46.5287 64.1088 46.7207C62.9362 47.051 61.6621 47.5649 60.4246 47.7597C59.4464 48.2793 58.1695 48.3865 57.0617 48.9767C56.729 48.9767 56.4753 49.2393 56.1427 49.4087C55.7481 49.4228 55.0631 49.5188 54.8009 49.0755C53.1942 47.9545 53.5494 47.4011 53.0222 45.4246C52.8588 44.3658 52.1625 43.3296 52.295 42.1804C52.9377 41.8952 53.758 42.3329 54.1554 42.8891C55.0941 43.6006 55.2181 46.2124 55.8778 46.1051C56.1512 45.9018 57.5832 45.8143 57.7495 45.4698V45.4726Z" fill="#1E1E1E"/>
<path d="M53.4198 31.1544C53.4367 31.2335 53.4029 31.3379 53.5297 31.352C54.3303 32.6368 53.2365 32.3855 55.0011 33.3172C57.0561 34.8561 54.4289 38.0072 52.8785 38.7582C51.5452 39.8199 50.071 38.7978 49.8765 37.242C50.0625 36.2029 50.3754 35.1356 50.8518 34.1643C51.1224 33.2805 51.3846 32.7186 51.7905 31.801C52.3232 30.9257 52.295 30.8325 53.417 31.1544H53.4198ZM51.5509 37.4792C52.1823 37.2843 52.7404 36.8551 53.2478 36.3074C53.9243 35.2655 54.6601 34.6754 53.0505 33.9299C52.5262 34.5427 52.2246 35.3078 51.875 36.1775C51.6608 36.4966 51.5452 37.0076 51.5509 37.4792Z" fill="#1E1E1E"/>
<path d="M119.694 34.441C116.393 33.4895 120.038 21.1873 117.814 23.2823C116.213 22.9011 114.431 25.6202 111.491 23.864C111.432 23.6946 111.327 23.5986 111.136 23.6663C108.069 21.927 110.27 18.8042 113.171 18.4032C113.557 18.1378 114.039 17.9261 114.609 17.7792C118.888 16.6837 123.668 15.6503 128.15 15.3284C128.892 15.3792 129.749 14.9077 130.648 15.0799C133.16 14.758 142.622 14.4474 141.608 18.615C141.681 19.0414 141.123 18.8635 140.824 19.1684C139.465 20.8597 139.446 20.8456 137.134 21.0658C136.018 20.9924 135.993 20.7948 135.722 22.04C135.009 22.6527 134.405 23.5421 134.039 24.5106C133.34 26.0155 130.561 31.9732 131.962 32.8993C137.089 34.3055 141.097 35.0283 137.608 40.9352C136.15 44.4844 135.257 47.5903 130.778 46.6529C130.642 47.1272 129.168 47.1329 128.486 47.0284C128.269 47.1922 127.722 47.5027 127.522 47.0453C127.403 47.1413 127.339 47.4322 127.085 47.2317C126.865 47.4971 126.6 47.3531 126.346 47.3136C126.022 47.4039 125.272 48.1606 125.022 47.7004C124.903 48.3498 123.409 48.0053 123.088 48.7564C122.704 48.5785 122.603 48.5051 122.298 48.8806C122.115 48.7366 122.05 48.6265 121.797 48.9286C120.802 48.9964 121.721 49.3974 120.486 49.9705C123.556 50.6341 126.916 49.451 130.563 49.2646C134.008 49.6458 136.277 48.2369 138.961 50.8741C139.508 51.515 139.054 51.9047 139.206 52.7122C139.942 53.7117 137.675 53.7993 136.875 53.6101C133.943 52.8026 131.057 53.4915 128.057 54.0449C126.524 54.3188 125.084 54.6774 123.595 54.8101C123.034 54.9795 122.442 55.2421 121.988 54.9654C121.295 55.3635 120.399 55.5809 119.494 55.355C118.716 55.6487 116.283 56.6256 115.86 55.3917C115.316 55.6063 115.189 55.0303 114.944 54.7847C114.403 54.7367 114.91 53.5988 114.313 53.3306C112.633 51.7183 113.76 49.7136 114.132 47.6722C115.381 46.1954 115.939 43.595 117.611 42.6265C118.961 41.6156 120.393 41.5874 122.265 41.4321C123.42 40.9239 124.757 41.0142 126.313 40.89C127.153 40.5568 128.243 40.314 129.199 40.2095C129.96 40.9521 132.483 39.1366 130.493 38.6368C125.709 38.106 121.061 40.2321 116.37 40.9521C115.017 40.537 113.602 40.0316 113.236 38.3573C112.275 36.5615 118.4 35.2147 119.685 34.441H119.694ZM122.921 33.2579C123.127 33.4443 123.378 33.1845 123.556 33.3765C129.239 32.552 125.363 33.5883 127.093 28.8927C128.303 26.5802 128.585 24.2593 129.05 21.7943C129.554 20.0239 124.469 21.7689 123.308 21.8423C123.516 25.6231 122.485 29.4236 122.921 33.2579Z" fill="#1E1E1E"/>
<path d="M96.5933 27.3059C96.7399 27.1845 96.7681 27.032 96.909 26.9925C97.2416 27.3257 98.0647 26.9784 98.7666 26.9784C99.0316 26.3713 99.3727 26.7045 100.108 26.8061C103.079 27.1534 105.825 25.4875 109.132 25.6993C109.786 25.3944 110.595 25.4791 111.358 25.6005C115.406 27.6645 117.284 30.8551 112.235 33.3765C110.048 33.4669 107.815 33.4584 105.763 33.961C103.984 33.8198 101.701 33.9695 100.92 35.7709C100.689 36.9032 99.7927 37.3295 99.4178 38.5549C98.4988 41.1074 97.5602 43.9987 97.2275 47.0228C96.1366 49.4228 98.279 51.3089 94.9217 51.8058C93.563 53.1894 90.5468 50.7216 90.9443 48.5926C92.1931 44.7922 92.0324 40.6415 92.1508 36.5813C89.3714 36.4909 85.8168 38.73 82.7978 39.3399C80.6216 40.1728 78.3017 41.7258 75.8465 41.5112C74.3328 41.2966 73.5294 39.3003 72.7993 37.9366C72.7852 37.2984 71.2264 36.7789 72.1284 35.9827C74.2989 34.441 76.9881 33.882 79.3813 32.6114C82.9979 31.3718 86.9641 29.7285 90.4566 29.0283C91.5475 28.3704 93.0049 27.7887 94.434 27.7774C95.0796 27.4866 95.8435 26.9163 96.5933 27.3087V27.3059Z" fill="#1E1E1E"/>
<path d="M99.3473 16.6781C101.087 16.9378 103.99 16.9011 105.605 19.0385C106.191 19.6343 105.174 20.3543 105.769 21.1054C105.027 21.4019 104.359 21.752 103.663 22.3506C97.8759 22.6414 92.8245 24.0306 87.8154 26.8118C82.0141 26.4362 84.3848 17.9628 85.6505 14.4644C85.1403 14.0804 85.5913 13.5044 85.3883 12.7957C84.7456 12.1124 84.9345 11.2738 84.5427 10.3448C83.9592 9.14482 86.8288 7.79799 87.7618 6.89728C88.2917 7.0441 88.8076 6.36645 89.3883 6.26198C89.907 6.64598 90.4313 5.79327 91.0148 5.94009C92.7343 5.19185 94.4397 4.97444 96.3029 4.24032C97.2642 3.55984 98.6088 3.77161 99.8688 3.51184C100.201 4.06243 100.709 4.23749 101.408 4.46055C102.406 4.9575 103.139 6.18857 103.708 7.12034C103.593 7.75846 103.141 7.65117 103.666 8.57164C103.739 8.92459 103.356 8.902 103.023 9.02341C102.888 9.66153 102.242 10.0427 101.56 10.503C99.1133 11.2568 96.9569 10.7119 94.5891 12.0248C93.5348 12.3919 93.1233 13.4366 93.0866 14.6338C92.4157 15.2719 92.3509 16.0202 91.9873 17.0762C89.9661 20.1369 91.4489 19.208 93.9097 18.5924C95.088 18.0701 96.6694 18.0192 97.8674 17.2597C98.3579 17.127 99.1725 17.4941 99.3473 16.6752V16.6781Z" fill="#1E1E1E"/>
<path d="M129.983 5.44031C129.687 4.76266 129.072 4.72031 128.531 4.50854C128.272 4.49442 126.871 4.45772 127.105 3.88736C127.502 3.39324 127.22 2.60829 126.902 1.92782C125.368 -0.299966 123.849 -1.01997 122.758 2.07746C121.115 4.48878 120.139 7.8488 121.115 10.8474C123.209 15.9383 131.561 10.4493 129.983 5.44314V5.44031ZM126.532 9.13352C126.372 9.2634 126.194 9.36222 126.005 9.44128C125.709 9.58811 125.16 9.84505 124.697 9.44693C124.528 9.3114 124.308 9.06011 124.229 8.69587C124.12 8.47563 123.998 7.89963 124.255 7.45915C124.266 7.41115 124.218 7.3688 124.339 7.15986C124.432 6.85774 124.782 6.49632 125.289 6.45679C125.284 6.45679 125.289 6.45679 125.382 6.4455C126.809 6.10949 127.801 8.17916 126.532 9.13634V9.13352Z" fill="#1E1E1E"/>
<path d="M150.248 50.3715C150.2 50.1992 149.954 50.1315 149.785 50.0044C149.405 49.2421 149.647 49.6712 149.65 49.0162C149.066 48.2256 149.797 48.1465 149.455 48.0251C149.089 47.1554 149.34 47.2486 149.571 46.6162C149.01 46.4016 149.625 46.4439 149.45 46.0627C149.174 45.882 149.261 45.8707 149.478 45.6618C149.222 45.4444 149.374 45.1592 149.467 44.8599C149.351 44.586 149.247 44.4194 149.571 44.2133C149.117 44.0693 149.32 43.9648 149.399 43.6712C149.642 43.4368 149.05 43.2985 149.253 43.0274C149.549 42.7394 149.315 42.8891 149.233 42.6462C149.568 42.3752 149.191 41.9742 149.388 41.6382C149.331 41.5592 149.188 41.5112 149.196 41.3869C149.76 40.3705 149.219 41.2203 149.238 40.2406C149.134 39.9074 149.281 39.5968 149.399 39.289C149.222 39.0575 149.413 39.1281 149.619 39.097C149.689 38.9784 149.21 38.9079 149.427 38.7836C149.551 38.617 149.475 38.49 149.447 38.3403C149.509 38.0806 149.667 37.8349 149.625 37.5497C149.743 37.1798 149.605 36.8213 149.515 36.4655C149.78 36.1634 149.856 34.7205 150.417 34.8024C150.234 34.6132 151.15 34.153 151.316 34.3139C151.477 34.2942 151.53 34.0881 151.728 34.0937C152.139 34.1191 152.63 34.0824 152.999 33.9412C153.486 34.0909 153.286 33.8452 154.264 33.8593C155.006 33.8481 155.787 33.8368 156.59 33.7492C156.714 33.7492 156.689 33.8819 156.847 33.817C157.382 33.6589 157.957 33.8904 158.555 33.8001C162.665 33.5177 166.749 34.0288 169.351 34.2716C170.887 34.3281 171.989 34.5794 172.037 35.9008C172.35 36.5784 172.925 38.0721 172.736 38.2246C172.734 38.4759 172.891 38.9559 172.641 39.241C172.48 39.5883 172.748 40.009 172.435 40.3055C172.641 40.4439 172.525 40.6641 172.311 40.7008C172.364 41.4519 172.212 42.2876 172.167 43.0839C171.93 43.3267 172.364 43.3013 172.339 43.5808C172.147 43.8519 172.201 44.1032 172.26 44.411C172.015 44.9051 172.311 44.7526 172.156 45.114C172.108 45.3879 172.139 45.5601 171.975 45.8312C171.992 46.0825 172.054 46.2717 171.891 46.5201C172.015 46.7573 171.987 46.9663 171.882 47.2345C171.818 47.3954 172.077 47.5818 171.832 47.6891C172.054 47.7512 171.586 48.6378 171.569 48.8411C171.905 48.5616 171.874 49.4792 171.806 49.5696C171.944 49.6345 171.947 49.6825 171.846 49.8576C171.803 49.9282 171.846 50.0129 171.688 50.0185C171.228 50.0524 171.753 50.1908 171.29 50.4138C170.721 50.6087 171.228 50.5719 170.715 50.6934C170.679 50.9418 170.183 51.196 169.906 51.292C169.729 51.3428 169.486 51.3795 169.227 51.3061C169.055 51.3823 168.861 51.4247 168.638 51.4303C168.514 51.2016 167.705 51.4077 167.406 51.34C166.459 51.0604 166.527 51.563 166.295 51.1677C166.256 51.1677 166.214 51.1903 166.149 51.2214C165.884 51.3258 165.904 51.0802 165.571 51.2807C165.089 51.2722 164.646 51.1762 164.114 51.1225C162.67 51.2863 162.549 51.0491 161.475 51.0858C160.804 51.1338 161.157 51.179 160.629 51.0745C160.311 51.275 160.711 50.9729 159.866 51.1564C157.937 51.0039 158.682 51.2468 158.05 51.0463C157.687 51.323 157.106 50.9785 156.601 51.1028C156.023 51.1451 155.395 51.2468 154.882 51.0491C154.738 51.1141 154.775 51.2496 154.51 51.0915C154.101 51.3089 154.186 51.0632 153.844 51.083C153.478 51.3682 152.026 51.3089 151.696 51.227C151.491 51.0632 151.254 51.0124 151.048 50.8345C150.907 50.8204 150.814 50.8628 150.696 50.7216C150.428 50.3856 150.572 50.2924 150.242 50.3686L150.248 50.3715Z" fill="#B01E23"/>
<path d="M164.759 40.6274C164.804 40.5963 164.846 40.5766 164.86 40.5342C164.88 40.4721 164.911 40.4382 164.976 40.4552C164.993 40.4608 165.013 40.441 165.021 40.4241C165.044 40.3563 165.097 40.3309 165.151 40.314C165.317 40.2632 165.45 40.1163 165.616 40.0881C165.853 40.0486 166.067 39.9385 166.295 39.8679C166.377 39.8425 166.464 39.8368 166.54 39.8001C166.56 39.7916 166.6 39.7888 166.591 39.7606C166.56 39.6589 166.619 39.6533 166.684 39.6335C166.758 39.6109 166.777 39.529 166.755 39.4443C166.729 39.3455 166.735 39.2354 166.69 39.1394C166.608 39.1704 166.515 39.1817 166.453 39.2608C166.445 39.2721 166.428 39.2749 166.414 39.2777C166.25 39.3003 166.101 39.3625 165.968 39.4669C165.96 39.4726 165.949 39.4782 165.943 39.4754C165.799 39.4387 165.63 39.4839 165.52 39.3455C165.407 39.2043 165.303 39.0575 165.185 38.9192C165.058 38.7723 165.125 38.5521 165.241 38.442C165.303 38.3827 165.368 38.3177 165.461 38.2951C165.506 38.2839 165.554 38.2556 165.596 38.2161C165.661 38.154 165.731 38.0975 165.824 38.154C165.841 38.1653 165.864 38.1596 165.878 38.1455C166.019 38.01 166.205 38.0015 166.371 37.9422C166.38 37.9394 166.394 37.945 166.4 37.9422C166.509 37.8519 166.625 37.7728 166.763 37.7417C166.78 37.7389 166.803 37.705 166.805 37.6853C166.825 37.4933 166.949 37.3097 166.834 37.1036C166.805 37.0556 166.82 36.9765 166.803 36.9116C166.791 36.8664 166.78 36.8269 166.746 36.793C166.659 36.6914 166.645 36.5897 166.712 36.4711C166.8 36.3158 166.907 36.1888 167.099 36.2142C167.203 36.2283 167.313 36.1831 167.406 36.2904C167.434 36.3243 167.516 36.313 167.569 36.3102C167.657 36.3045 167.758 36.2961 167.815 36.3497C167.879 36.409 167.922 36.5078 167.95 36.6067C167.987 36.7337 167.995 36.8721 168.037 36.9963C168.08 37.1177 168.102 37.2391 168.096 37.369C168.096 37.4509 168.161 37.4791 168.206 37.513C168.308 37.5864 168.429 37.5949 168.548 37.5836C168.717 37.5695 168.889 37.5751 169.058 37.5723C169.269 37.5723 169.478 37.6373 169.684 37.6824C169.746 37.6966 169.796 37.7558 169.861 37.7728C169.892 37.7813 169.909 37.8236 169.912 37.8603C169.92 37.9479 169.971 38.0071 170.016 38.0721C170.137 38.2443 170.188 38.4448 170.205 38.6594C170.211 38.7441 170.168 38.8119 170.12 38.8655C170.016 38.9784 170.005 39.1281 169.94 39.2834C170.092 39.2834 170.219 39.2777 170.346 39.2749C170.619 39.2721 170.893 39.2636 171.169 39.2749C171.575 39.4697 171.104 40.0599 170.882 40.0938C170.822 40.1022 170.76 40.0768 170.698 40.0768C170.467 40.0768 170.239 40.105 170.008 40.1022C169.898 40.1022 169.785 40.1248 169.675 40.1446C169.576 40.1615 169.52 40.2575 169.461 40.3281C169.368 40.441 169.292 40.5738 169.232 40.7149C169.182 40.8335 169.111 40.9436 169.049 41.0566C169.041 41.0735 169.03 41.0905 169.015 41.1074C168.897 41.2458 168.925 41.4011 168.993 41.5451C169.03 41.6185 169.055 41.706 169.117 41.7653C169.134 41.7822 169.156 41.8133 169.151 41.8302C169.114 41.9573 169.201 41.9884 169.272 42.0335C169.303 42.0561 169.345 42.0702 169.334 42.1239C169.326 42.1747 169.286 42.186 169.244 42.2086C169.058 42.3102 168.875 42.2453 168.691 42.2029C168.57 42.1747 168.446 42.1775 168.325 42.1578C168.212 42.1408 168.122 42.2481 168.142 42.3695C168.153 42.4429 168.133 42.5107 168.142 42.5841C168.17 42.7648 168.237 42.8411 168.407 42.8439C168.477 42.8439 168.548 42.8411 168.618 42.8382C168.736 42.8354 168.852 42.8495 168.97 42.8637C169.218 42.8891 169.466 42.9117 169.715 42.9371C169.779 42.9455 169.841 42.9681 169.906 42.9851C169.948 42.9964 169.948 43.0331 169.951 43.0698C169.957 43.1601 169.957 43.2561 170.044 43.3126C170.058 43.3211 170.07 43.3465 170.07 43.3634C170.061 43.4566 170.118 43.499 170.18 43.5441C170.239 43.5865 170.233 43.6147 170.171 43.6571C170.081 43.7164 169.982 43.722 169.884 43.7192C169.672 43.7192 169.464 43.6938 169.252 43.6994C169.128 43.7023 169.007 43.6797 168.886 43.6684C168.641 43.643 168.398 43.643 168.159 43.7418C168.173 43.8208 168.175 43.8942 168.159 43.979C168.144 44.0524 168.153 44.1427 168.178 44.2218C168.218 44.346 168.212 44.4674 168.144 44.5832C168.111 44.6368 168.13 44.6792 168.184 44.6736C168.432 44.6453 168.68 44.6933 168.928 44.6594C168.956 44.6566 168.984 44.6538 169.013 44.6594C169.17 44.6877 169.331 44.6566 169.489 44.6623C169.658 44.6707 169.827 44.6594 169.996 44.6736C170.177 44.6905 170.354 44.6848 170.535 44.6961C170.65 44.7018 170.752 44.7611 170.865 44.7667C170.91 44.7696 170.935 44.8147 170.935 44.8684C170.935 44.9785 170.972 45.0547 171.048 45.1338C171.13 45.2157 171.183 45.3343 171.223 45.45C171.245 45.5178 171.225 45.5912 171.166 45.6251C171.048 45.6929 170.929 45.7719 170.783 45.7663C170.636 45.7606 170.49 45.7663 170.343 45.7663C170.197 45.7663 170.053 45.7296 169.906 45.738C169.757 45.7465 169.607 45.7296 169.455 45.7324C169.247 45.7324 169.041 45.7352 168.835 45.707C168.821 45.707 168.807 45.7013 168.793 45.707C168.646 45.755 168.497 45.7013 168.347 45.7126C168.232 45.7211 168.223 45.7183 168.173 45.8623C168.161 45.8905 168.136 45.8933 168.122 45.9131C168.099 45.9413 168.068 45.9667 168.122 45.9978C168.125 45.9978 168.13 46.0034 168.133 46.0063C168.037 46.122 168.159 46.2689 168.085 46.3903C168.077 46.4044 168.071 46.4185 168.065 46.4298C168.046 46.4665 168.015 46.4806 168.071 46.5371C168.142 46.6077 168.096 46.7234 168.043 46.8025C168.015 46.8449 168.02 46.8618 168.032 46.907C168.065 47.0312 168.088 47.1611 168.001 47.2712C167.927 47.3644 167.972 47.4689 167.947 47.5649C168.023 47.675 167.933 47.7823 167.936 47.8896C167.936 47.9206 167.925 47.9545 167.936 47.9912C167.947 48.0251 167.956 48.0618 167.919 48.0872C167.896 48.1042 167.891 48.1268 167.902 48.155C167.939 48.2453 167.916 48.3272 167.891 48.4204C167.871 48.4995 167.809 48.5701 167.832 48.6632C167.837 48.6886 167.817 48.7169 167.798 48.7282C167.688 48.7931 167.631 48.9145 167.55 49.0077C167.519 49.0444 167.474 49.0218 167.457 49.0557C167.42 49.1263 167.313 49.1376 167.321 49.2477C167.321 49.2703 167.293 49.307 167.271 49.3183C167.163 49.3719 167.107 49.4821 167.025 49.5639C166.96 49.6289 166.867 49.6599 166.786 49.7023C166.769 49.7108 166.752 49.6938 166.738 49.6825C166.622 49.595 166.543 49.4736 166.487 49.3409C166.462 49.2816 166.478 49.2053 166.47 49.1376C166.453 48.9682 166.464 48.7988 166.402 48.6322C166.357 48.5079 166.374 48.3611 166.369 48.2284C166.366 48.1578 166.318 48.0985 166.343 48.0195C166.36 47.9602 166.385 47.8896 166.326 47.8331C166.36 47.7371 166.326 47.6326 166.352 47.5451C166.383 47.4322 166.354 47.3192 166.377 47.2091C166.38 47.1893 166.363 47.1639 166.371 47.1498C166.456 47.0086 166.411 46.8618 166.397 46.715C166.391 46.6585 166.383 46.602 166.397 46.5456C166.433 46.3733 166.366 46.1983 166.402 46.0232C166.414 45.9696 166.374 45.9272 166.309 45.9611C166.261 45.9865 166.213 45.9667 166.163 45.9554C166.064 45.9329 165.96 45.9554 165.858 45.9809C165.762 46.0034 165.672 46.0289 165.568 46.0063C165.495 45.9893 165.424 46.0627 165.342 46.0712C165.278 46.0797 165.216 46.1531 165.145 46.0853C165.094 46.1503 165.021 46.0994 164.965 46.122C164.807 46.1842 164.638 46.1672 164.48 46.2124C164.404 46.235 164.336 46.1813 164.263 46.2124C164.195 46.2378 164.13 46.2322 164.06 46.2265C163.989 46.2209 163.908 46.2604 163.826 46.2576C163.781 46.2576 163.733 46.2547 163.713 46.2096C163.648 46.0543 163.521 45.9357 163.49 45.7634C163.459 45.5912 163.575 45.3907 163.73 45.354C163.834 45.3286 163.941 45.2976 164.046 45.2721C164.15 45.2439 164.257 45.2383 164.359 45.21C164.474 45.1761 164.587 45.1197 164.708 45.114C164.796 45.1112 164.877 45.0632 164.965 45.0886C164.984 45.0943 165.013 45.0886 165.032 45.0801C165.213 45.0096 165.407 45.0237 165.591 44.9559C165.7 44.9136 165.833 44.9164 165.954 44.9023C166.078 44.8853 166.188 44.8317 166.309 44.8063C166.383 44.7921 166.408 44.699 166.411 44.6397C166.414 44.4561 166.411 44.2698 166.425 44.0863C166.428 44.0552 166.321 43.9959 166.281 44.0157C166.185 44.0665 166.078 44.0693 165.985 44.1173C165.788 44.2133 165.585 44.2952 165.373 44.3545C165.345 44.363 165.32 44.3743 165.297 44.3884C165.227 44.4335 165.148 44.4505 165.069 44.4618C164.883 44.4928 164.75 44.4053 164.66 44.2331C164.624 44.1625 164.593 44.0863 164.533 44.0326C164.522 44.0241 164.508 44.01 164.508 43.9987C164.517 43.8971 164.471 43.7926 164.533 43.691C164.587 43.6006 164.641 43.5272 164.753 43.5385C164.784 43.5413 164.818 43.5244 164.849 43.5102C165.03 43.4312 165.218 43.3917 165.402 43.3352C165.489 43.307 165.579 43.2872 165.653 43.2307C165.703 43.1884 165.762 43.2081 165.813 43.194C165.951 43.1573 166.089 43.0952 166.222 43.0895C166.377 43.0839 166.425 43.002 166.47 42.8721C166.49 42.8157 166.498 42.7931 166.445 42.7648C166.425 42.7535 166.408 42.7168 166.436 42.7027C166.546 42.6406 166.414 42.5926 166.428 42.5248C166.439 42.4797 166.36 42.5022 166.321 42.5022C166.211 42.4966 166.126 42.57 166.027 42.6039C165.878 42.6547 165.717 42.6914 165.602 42.8157C165.509 42.9145 165.396 42.9625 165.283 43.0189C165.261 43.0302 165.238 43.0415 165.216 43.0302C165.106 42.9738 164.97 42.9597 164.906 42.8326C164.852 42.7253 164.759 42.6547 164.717 42.5333C164.635 42.2989 164.765 42.1662 164.917 42.0928C164.973 42.0646 165.027 42.0392 165.072 41.9912C165.14 41.9206 165.23 41.8924 165.311 41.8613C165.585 41.7596 165.847 41.6128 166.14 41.5705C166.264 41.5507 166.383 41.4829 166.509 41.466C166.535 41.4632 166.56 41.4462 166.563 41.4208C166.577 41.2796 166.619 41.1385 166.563 40.9973C166.546 40.9549 166.529 40.9323 166.49 40.9549C166.402 41.0086 166.281 40.9945 166.216 41.1018C166.202 41.1272 166.163 41.1215 166.14 41.1328C166.073 41.1695 165.988 41.1723 165.937 41.2542C165.903 41.3079 165.839 41.3361 165.779 41.3474C165.622 41.3728 165.478 41.4462 165.331 41.5027C165.238 41.5394 165.137 41.5959 165.044 41.4914C165.035 41.4829 165.018 41.4773 165.004 41.4773C164.908 41.4745 164.863 41.418 164.827 41.3192C164.793 41.2232 164.751 41.1328 164.722 41.034C164.694 40.9352 164.638 40.8392 164.697 40.7319C164.643 40.7149 164.621 40.746 164.612 40.7714C164.579 40.8646 164.502 40.8872 164.429 40.9295C164.328 40.986 164.209 41.0199 164.139 41.13C164.116 41.1667 164.077 41.178 164.046 41.1978C163.905 41.2796 163.792 41.3982 163.677 41.5168C163.614 41.5818 163.603 41.6636 163.629 41.7512C163.66 41.8528 163.696 41.9545 163.626 42.0561C163.62 42.0646 163.62 42.0759 163.62 42.0844C163.657 42.4119 163.603 42.7366 163.603 43.0641C163.603 43.0698 163.603 43.0754 163.603 43.0782C163.626 43.194 163.609 43.3069 163.6 43.4227C163.584 43.6119 163.6 43.8039 163.589 43.9931C163.578 44.1794 163.561 44.3686 163.533 44.555C163.479 44.9051 163.414 45.2552 163.42 45.611C163.423 45.834 163.395 46.0486 163.369 46.2689C163.341 46.506 163.352 46.746 163.341 46.986C163.33 47.2373 163.304 47.4886 163.293 47.7399C163.288 47.9376 163.242 48.1352 163.271 48.3329C163.285 48.4204 163.257 48.5051 163.251 48.5898C163.248 48.6491 163.172 48.7112 163.118 48.7564C163.062 48.8016 163.025 48.8524 163.003 48.9258C162.986 48.9795 162.958 49.0218 162.91 49.0557C162.831 49.1094 162.769 49.1828 162.752 49.2901C162.746 49.3352 162.735 49.3889 162.687 49.403C162.634 49.4171 162.588 49.3889 162.549 49.3437C162.377 49.1291 162.295 48.8778 162.29 48.5926C162.29 48.4769 162.301 48.3611 162.276 48.2425C162.25 48.1211 162.301 47.9997 162.321 47.8811C162.346 47.7371 162.369 47.5903 162.354 47.4435C162.343 47.339 162.374 47.2402 162.377 47.1385C162.38 47.0002 162.363 46.8618 162.354 46.7234C162.343 46.5484 162.377 46.379 162.374 46.2067C162.374 45.93 162.391 45.6561 162.433 45.3823C162.476 45.114 162.473 44.8373 162.495 44.5663C162.501 44.4957 162.518 44.4251 162.532 44.3545C162.566 44.1823 162.532 44.0072 162.555 43.8321C162.577 43.6317 162.597 43.4284 162.594 43.2222C162.594 43.1771 162.594 43.1291 162.588 43.0867C162.572 42.9935 162.577 42.9004 162.605 42.8185C162.636 42.7253 162.605 42.6378 162.628 42.5474C162.634 42.5192 162.634 42.4712 162.594 42.4542C162.555 42.4401 162.535 42.474 162.512 42.4994C162.301 42.7394 162.073 42.9653 161.867 43.2109C161.661 43.4538 161.469 43.7079 161.28 43.9648C161.078 44.2415 160.875 44.5211 160.705 44.826C160.635 44.9559 160.548 45.083 160.511 45.2326C160.5 45.2721 160.471 45.2919 160.438 45.2891C160.398 45.2863 160.381 45.2439 160.384 45.21C160.39 45.1281 160.395 45.0434 160.415 44.9672C160.452 44.8232 160.494 44.682 160.556 44.5465C160.68 44.2754 160.79 43.9959 160.92 43.7277C161.021 43.5187 161.14 43.3182 161.252 43.1178C161.396 42.8637 161.551 42.6152 161.712 42.3752C161.87 42.1436 162.022 41.9093 162.188 41.6862C162.253 41.5987 162.323 41.5168 162.377 41.4208C162.377 41.418 162.385 41.4152 162.388 41.4095C162.442 41.2119 162.619 41.13 162.727 40.9832C162.817 40.8561 162.932 40.7573 163.02 40.6274C163.113 40.489 163.254 40.3902 163.361 40.2632C163.44 40.17 163.538 40.1022 163.609 40.0006C163.66 39.93 163.736 39.8707 163.801 39.8057C163.86 39.7465 163.916 39.6787 163.981 39.6279C164.066 39.5629 164.156 39.5065 164.26 39.4923C164.395 39.4754 164.542 39.5629 164.604 39.6928C164.61 39.7013 164.61 39.7126 164.615 39.721C164.697 39.8001 164.725 39.8961 164.748 40.0175C164.779 40.1728 164.782 40.3168 164.753 40.4693C164.742 40.5286 164.717 40.5879 164.748 40.6641L164.759 40.6274ZM168.649 38.5436C168.539 38.6086 168.359 38.4787 168.28 38.6848C168.198 38.6848 168.215 38.7469 168.212 38.8006C168.209 38.8401 168.206 38.8853 168.19 38.9192C168.164 38.97 168.142 38.9982 168.212 39.0321C168.249 39.049 168.257 39.1196 168.212 39.145C168.144 39.1817 168.144 39.2326 168.181 39.2806C168.221 39.3286 168.221 39.4189 168.271 39.4274C168.339 39.4387 168.412 39.4669 168.48 39.45C168.604 39.4161 168.731 39.3992 168.855 39.3653C168.953 39.3399 169.041 39.2834 169.035 39.145C169.035 39.1055 169.052 39.0801 169.072 39.049C169.097 39.0123 169.131 38.97 169.131 38.9276C169.131 38.8147 169.17 38.7187 169.213 38.6227C169.238 38.5606 169.201 38.5323 169.156 38.5239C169.117 38.5154 169.072 38.5295 169.03 38.5295C168.908 38.5352 168.787 38.538 168.652 38.5408L168.649 38.5436ZM168.164 40.9182C168.167 41.0312 168.223 41.1893 168.271 41.2458C168.316 41.2966 168.361 41.2881 168.415 41.2683C168.463 41.2514 168.466 41.2119 168.457 41.1695C168.446 41.0989 168.463 41.0368 168.502 40.9803C168.528 40.9465 168.539 40.9098 168.548 40.8674C168.587 40.6952 168.59 40.5116 168.66 40.345C168.672 40.3225 168.672 40.2942 168.652 40.2745C168.626 40.249 168.598 40.2547 168.573 40.2745C168.528 40.3083 168.477 40.314 168.423 40.3196C168.359 40.3253 168.308 40.3733 168.257 40.4043C168.218 40.4298 168.147 40.5032 168.17 40.5681C168.212 40.681 168.201 40.7827 168.161 40.8872C168.159 40.8956 168.161 40.9069 168.161 40.9182H168.164Z" fill="white"/>
<path d="M156.596 39.2015C156.627 39.21 156.635 39.1592 156.663 39.1761C156.692 39.1959 156.672 39.2241 156.666 39.2495C156.641 39.3879 156.624 39.529 156.596 39.6702C156.579 39.7521 156.587 39.8227 156.587 39.9018C156.587 39.9836 156.551 40.0683 156.553 40.1502C156.556 40.2942 156.553 40.4439 156.615 40.5794C156.627 40.6048 156.624 40.6274 156.621 40.6556C156.615 40.7347 156.672 40.7912 156.751 40.7996C156.782 40.8025 156.816 40.8109 156.847 40.8194C156.911 40.8392 156.976 40.8561 157.035 40.794C157.044 40.7855 157.075 40.7827 157.081 40.7883C157.134 40.8646 157.205 40.8109 157.264 40.8222C157.419 40.8561 157.574 40.8279 157.729 40.8448C157.957 40.8702 157.847 40.8589 158.073 40.8561C158.16 40.8561 158.248 40.8561 158.335 40.8731C158.419 40.89 158.512 40.8872 158.603 40.8956C158.792 40.9126 158.665 40.8985 158.854 40.9239C158.916 40.9323 158.975 40.8844 159.042 40.89C159.093 40.8956 159.138 40.9098 159.183 40.9295C159.313 40.9832 159.434 41.0707 159.575 41.0905C159.606 41.0961 159.637 41.1131 159.665 41.1328C159.696 41.1554 159.727 41.1752 159.767 41.178C159.86 41.1865 159.95 41.2006 159.998 41.3107C160.006 41.3276 160.04 41.3361 160.063 41.3418C160.105 41.3531 160.145 41.3672 160.153 41.4208C160.164 41.4858 160.116 41.5027 160.08 41.5309C160.054 41.5507 160.021 41.562 160.007 41.5987C160.094 41.7371 160.128 41.898 160.176 42.0533C160.19 42.0985 160.173 42.1295 160.142 42.1578C160.054 42.2397 159.956 42.3102 159.888 42.4175C159.871 42.4458 159.837 42.4627 159.809 42.4768C159.688 42.5305 159.558 42.5728 159.429 42.539C159.324 42.5107 159.217 42.5164 159.113 42.5051C158.859 42.4825 158.603 42.4909 158.346 42.4542C158.312 42.4486 158.6 42.4458 158.572 42.4684C158.544 42.491 158.515 42.4938 158.481 42.4684C158.442 42.4373 158.405 42.4825 158.363 42.4825C158.284 42.4797 158.2 42.4881 158.123 42.474C157.98 42.4458 158.177 42.4345 158.036 42.4514C158.025 42.4514 158.011 42.4599 157.999 42.4514C157.918 42.4119 157.833 42.4345 157.749 42.4401C157.571 42.4542 157.393 42.4401 157.216 42.474C157.182 42.4825 157.148 42.4486 157.12 42.4571C156.971 42.5164 156.796 42.4853 156.663 42.6095C156.649 42.6208 156.641 42.6321 156.635 42.6491C156.598 42.7592 156.584 42.8806 156.503 42.971C156.483 42.9935 156.474 43.0528 156.489 43.0867C156.517 43.1658 156.494 43.2335 156.483 43.307C156.48 43.3295 156.483 43.3521 156.458 43.3606C156.432 43.3691 156.427 43.386 156.435 43.4114C156.466 43.5046 156.438 43.5921 156.429 43.6825C156.415 43.8152 156.387 43.9479 156.39 44.0806C156.396 44.3121 156.381 44.5408 156.376 44.7696C156.37 44.9672 156.359 45.1677 156.376 45.3681C156.39 45.5263 156.362 45.6872 156.35 45.8453C156.336 46.0486 156.319 46.2519 156.305 46.4552C156.303 46.4976 156.311 46.5427 156.283 46.5823C156.269 46.5992 156.266 46.6387 156.274 46.6585C156.314 46.7489 156.305 46.8392 156.3 46.9324C156.291 47.1216 156.303 47.3108 156.252 47.4943C156.246 47.5169 156.235 47.5395 156.246 47.5592C156.294 47.6383 156.26 47.7004 156.224 47.7682C156.207 47.802 156.184 47.8444 156.198 47.8811C156.218 47.9376 156.198 47.9856 156.19 48.0364C156.181 48.0901 156.184 48.1493 156.181 48.2058C156.272 48.2369 156.147 48.3075 156.204 48.347C156.232 48.3668 156.215 48.3978 156.204 48.4176C156.131 48.5277 156.17 48.6378 156.204 48.7479C156.215 48.7875 156.229 48.8242 156.243 48.8609C156.252 48.8806 156.26 48.9032 156.243 48.923C156.162 49.0275 156.142 49.1574 156.116 49.2844C156.105 49.3352 156.071 49.3691 156.029 49.3917C155.959 49.4312 155.888 49.4567 155.809 49.4708C155.657 49.5018 155.505 49.5414 155.372 49.6402C155.35 49.6571 155.319 49.6571 155.291 49.6684C155.226 49.6938 155.189 49.5752 155.107 49.6402C155.054 49.6825 154.978 49.6119 154.907 49.6261C154.896 49.6261 154.879 49.6204 154.873 49.6119C154.8 49.5047 154.684 49.4312 154.656 49.2901C154.648 49.2505 154.642 49.211 154.651 49.1715C154.67 49.0868 154.656 49.0077 154.637 48.9258C154.614 48.8242 154.617 48.7225 154.665 48.6265C154.67 48.6152 154.684 48.6011 154.682 48.5926C154.645 48.4995 154.713 48.4345 154.727 48.3555C154.78 48.0788 154.82 47.7992 154.82 47.514C154.82 47.387 154.854 47.2571 154.814 47.13C154.854 46.8675 154.814 46.6049 154.809 46.3451C154.803 46.0204 154.797 45.6957 154.803 45.371C154.809 45.1338 154.78 44.8994 154.797 44.6651C154.817 44.3968 154.792 44.1314 154.789 43.866C154.786 43.6853 154.792 43.5046 154.792 43.3267C154.792 43.1884 154.792 43.0415 154.744 42.906C154.727 42.8552 154.744 42.7959 154.707 42.7451C154.67 42.6971 154.631 42.6717 154.583 42.6801C154.417 42.7084 154.245 42.6773 154.078 42.7338C154.039 42.7479 153.997 42.7535 153.957 42.7507C153.867 42.7451 153.78 42.7705 153.692 42.7902C153.574 42.8157 153.45 42.8269 153.326 42.8269C153.179 42.8269 153.035 42.8693 152.892 42.875C152.832 42.875 152.773 42.9004 152.711 42.8665C152.677 42.8495 152.618 42.8382 152.593 42.858C152.463 42.9568 152.308 42.8947 152.173 42.954C152.054 43.0048 151.925 43.0077 151.792 42.9964C151.733 42.9907 151.666 42.9794 151.603 43.0218C151.516 43.0811 151.403 43.0472 151.307 43.098C151.234 43.019 151.178 43.1037 151.116 43.1206C151.028 43.146 150.941 43.1432 150.854 43.1517C150.71 43.1658 150.597 43.1037 150.479 43.0557C150.462 43.0472 150.434 43.0331 150.431 43.019C150.417 42.9286 150.341 42.8975 150.296 42.8354C150.279 42.81 150.25 42.7902 150.242 42.762C150.217 42.6745 150.163 42.6067 150.115 42.5333C150.047 42.4317 150.008 42.3215 150.033 42.1945C150.053 42.1041 150.062 42.0138 150.067 41.9234C150.07 41.8726 150.095 41.8444 150.138 41.8246C150.245 41.7738 150.352 41.7201 150.467 41.6891C150.501 41.6806 150.546 41.6806 150.566 41.6439C150.634 41.5196 150.752 41.5535 150.848 41.5366C150.927 41.5253 151.009 41.5309 151.088 41.4999C151.206 41.4519 151.333 41.4462 151.454 41.418C151.603 41.3841 151.759 41.3531 151.911 41.3305C152.023 41.3135 152.139 41.2853 152.255 41.2655C152.379 41.2429 152.497 41.1949 152.627 41.1978C152.683 41.1978 152.737 41.1695 152.793 41.1611C152.982 41.1385 153.174 41.1131 153.365 41.0989C153.596 41.082 153.822 41.0368 154.053 41.0199C154.149 41.0142 154.25 41.0086 154.346 40.9747C154.434 40.9436 154.529 40.9436 154.622 40.9295C154.642 40.9295 154.668 40.9295 154.679 40.9098C154.704 40.8533 154.758 40.8251 154.786 40.7827C154.823 40.7291 154.848 40.6443 154.828 40.5681C154.803 40.4665 154.82 40.3761 154.865 40.2886C154.871 40.2773 154.879 40.2575 154.876 40.2519C154.789 40.1559 154.871 40.0514 154.865 39.9498C154.859 39.8255 154.865 39.6985 154.882 39.5714C154.904 39.3963 154.935 39.2156 154.933 39.0349C154.933 39.0123 154.938 38.9926 154.944 38.97C155.003 38.7356 155.057 38.4984 155.068 38.2528C155.124 38.1653 155.121 38.0608 155.141 37.9648C155.167 37.8406 155.195 37.7135 155.214 37.5864C155.229 37.4876 155.22 37.386 155.234 37.29C155.262 37.1206 155.22 36.9455 155.274 36.7761C155.344 36.5643 155.448 36.4909 155.649 36.5445C155.713 36.5615 155.767 36.5643 155.826 36.5333C155.919 36.4881 156.018 36.5135 156.114 36.5163C156.122 36.5163 156.133 36.5163 156.136 36.522C156.193 36.6208 156.291 36.5897 156.373 36.6151C156.469 36.6462 156.556 36.6942 156.598 36.8015C156.607 36.8241 156.629 36.841 156.646 36.8608C156.717 36.937 156.748 37.033 156.745 37.1403C156.745 37.2363 156.756 37.3408 156.745 37.4311C156.725 37.5921 156.739 37.7559 156.708 37.9168C156.675 38.0947 156.649 38.2754 156.624 38.4561C156.618 38.4956 156.618 38.538 156.624 38.5747C156.652 38.7243 156.621 38.8627 156.584 39.0039C156.57 39.0575 156.582 39.1196 156.582 39.1846L156.596 39.2015Z" fill="white"/>
<path d="M163.257 37.2081C163.299 37.2307 163.313 37.2165 163.333 37.2109C163.409 37.194 163.479 37.1968 163.524 37.2843C163.553 37.3351 163.606 37.3549 163.648 37.386C163.792 37.4961 163.871 37.6627 163.973 37.8095C164.04 37.9055 164.035 38.041 164.063 38.1624C164.068 38.1822 164.054 38.202 164.04 38.2161C163.981 38.2726 163.964 38.3573 163.939 38.4335C163.891 38.569 163.818 38.6707 163.702 38.7441C163.496 38.8796 163.302 39.0434 163.144 39.2354C162.913 39.5121 162.668 39.769 162.422 40.0316C162.372 40.0881 162.312 40.1361 162.245 40.1559C162.09 40.2039 161.991 40.3196 161.895 40.4523C161.794 40.5907 161.689 40.729 161.579 40.8617C161.393 41.082 161.179 41.2825 161.075 41.5789C161.03 41.7032 160.968 41.8189 160.959 41.9545C160.954 42.0335 160.906 42.0956 160.872 42.1578C160.81 42.2792 160.66 42.2538 160.587 42.138C160.52 42.0335 160.528 41.946 160.573 41.8387C160.621 41.7286 160.652 41.6072 160.694 41.4942C160.793 41.2316 160.917 40.986 161.044 40.7375C161.176 40.4777 161.295 40.2095 161.427 39.9526C161.534 39.7436 161.658 39.5432 161.771 39.337C161.87 39.1563 161.966 38.9728 162.061 38.7921C162.101 38.7159 162.16 38.6537 162.208 38.586C162.279 38.49 162.349 38.3883 162.394 38.2697C162.434 38.1653 162.496 38.0664 162.543 37.9648C162.594 37.8631 162.684 37.7897 162.727 37.6824C162.735 37.6598 162.752 37.6401 162.761 37.6175C162.803 37.5187 162.825 37.4029 162.961 37.4085C162.986 37.4085 162.992 37.3747 163.006 37.3549C163.076 37.2645 163.175 37.242 163.251 37.2109L163.257 37.2081Z" fill="white"/>
<path d="M153.898 37.722C153.878 37.8914 153.884 38.0636 153.923 38.233C153.937 38.2923 153.853 38.4646 153.811 38.4872C153.777 38.5041 153.599 38.4674 153.571 38.4363C153.484 38.3375 153.362 38.2839 153.281 38.1766C153.255 38.1427 153.216 38.1342 153.179 38.1286C153.066 38.1144 152.973 38.0552 152.889 37.9846C152.841 37.945 152.787 37.9676 152.742 37.9366C152.655 37.8773 152.567 37.8095 152.511 37.7135C152.497 37.6881 152.483 37.6655 152.46 37.6768C152.398 37.7107 152.37 37.657 152.328 37.6288C152.269 37.5893 152.224 37.5187 152.145 37.5215C152.111 37.5215 152.108 37.4876 152.094 37.4594C152.049 37.3521 152.046 37.2279 151.987 37.1262C151.981 37.1177 151.978 37.1064 151.981 37.0951C152.015 36.9257 151.987 36.7224 152.122 36.6038C152.209 36.5276 152.317 36.4486 152.443 36.4542C152.466 36.4542 152.491 36.4683 152.511 36.4542C152.584 36.3921 152.658 36.3243 152.762 36.3808C152.965 36.3243 153.126 36.4231 153.266 36.5643C153.337 36.6349 153.402 36.714 153.484 36.7761C153.782 37.0048 153.878 37.3436 153.901 37.722H153.898Z" fill="white"/>
<path d="M150.983 39.4246C150.989 39.3116 150.966 39.1761 151.043 39.0575C151.071 39.0152 151.096 38.9841 151.15 38.97C151.243 38.9417 151.341 38.9135 151.412 38.8345C151.429 38.8147 151.454 38.8034 151.477 38.809C151.643 38.8514 151.818 38.7949 151.984 38.8486C152.026 38.8627 152.074 38.8486 152.108 38.9022C152.131 38.9417 152.187 38.922 152.227 38.9276C152.3 38.9361 152.382 38.9163 152.427 39.0067C152.441 39.0377 152.477 39.0265 152.506 39.0321C152.551 39.0378 152.579 39.0632 152.568 39.114C152.556 39.1676 152.568 39.1987 152.621 39.2185C152.709 39.2523 152.723 39.3568 152.768 39.4274C152.926 39.6759 153.092 39.9159 153.267 40.1531C153.303 40.2039 153.363 40.2575 153.329 40.3281C153.292 40.4043 153.222 40.4382 153.143 40.4495C153.075 40.458 153.01 40.4495 152.948 40.4269C152.771 40.3676 152.585 40.3733 152.404 40.3648C152.114 40.3535 151.835 40.3253 151.561 40.2011C151.502 40.1756 151.434 40.1672 151.37 40.1361C151.2 40.0486 151.127 39.865 151.006 39.7352C150.983 39.7098 150.986 39.6787 150.986 39.6476C150.986 39.5799 150.986 39.5149 150.986 39.4274L150.983 39.4246Z" fill="white"/>
</svg>
