<svg width="48" height="84" viewBox="0 0 48 84" fill="none" xmlns="http://www.w3.org/2000/svg">
<g filter="url(#filter0_d_94_606)">
<path d="M7.89587 48.7336C8.57143 47.958 9.1469 47.2324 9.62229 46.5569C10.1227 45.8813 10.5731 45.1932 10.9734 44.4926C11.3737 43.7921 11.749 43.054 12.0993 42.2783C12.4496 41.5027 12.8124 40.6395 13.1877 39.6887L16.3778 40.9272C16.6531 41.0523 16.7782 41.24 16.7532 41.4902C16.7532 41.7404 16.603 41.903 16.3028 41.9781L15.4771 42.1657C14.8766 43.0164 14.3387 43.7545 13.8633 44.3801C13.3879 44.9806 12.9 45.5435 12.3996 46.0689C11.8741 46.5944 11.3112 47.1073 10.7107 47.6077C10.1102 48.0831 9.39711 48.6085 8.57143 49.184L7.89587 48.7336ZM8.15859 58.942C9.00929 57.7911 9.7474 56.7152 10.3729 55.7144C11.0234 54.7136 11.5989 53.7127 12.0993 52.7119C12.5997 51.7111 13.0626 50.6602 13.488 49.5593C13.9383 48.4584 14.4012 47.2074 14.8766 45.8062L17.9917 47.0447C18.2919 47.1448 18.4295 47.3325 18.4045 47.6077C18.3795 47.8829 18.2044 48.0581 17.8791 48.1331L17.0909 48.3208C16.5655 49.3717 15.9525 50.4601 15.2519 51.586C14.5764 52.7119 14.0134 53.6127 13.563 54.2882L15.0267 54.9638C15.1518 55.0138 15.2144 55.1514 15.2144 55.3766C15.2394 55.5768 15.1894 55.6894 15.0643 55.7144L14.3137 56.1272V71.3648C14.3137 71.5649 14.2386 71.7651 14.0885 71.9652C13.9634 72.1654 13.7882 72.303 13.563 72.3781C13.4129 72.4531 13.2253 72.5032 13.0001 72.5282C12.7999 72.5532 12.6248 72.5657 12.4746 72.5657C12.1744 72.5657 11.9367 72.4782 11.7616 72.303C11.5864 72.1529 11.4988 71.9402 11.4988 71.665C11.4738 71.5149 11.4613 71.3022 11.4613 71.027C11.4863 70.7517 11.5113 70.4515 11.5364 70.1262C11.5614 69.7759 11.5864 69.4006 11.6114 69.0003C11.6365 68.625 11.649 68.2372 11.649 67.8369V56.6527C11.2737 57.028 10.8233 57.4658 10.2978 57.9662C9.79744 58.4666 9.30954 58.9295 8.83415 59.3549L8.15859 58.942ZM23.4337 44.5677C22.8832 44.5677 22.2577 44.6052 21.5571 44.6803C20.8816 44.7303 20.2811 44.7929 19.7556 44.868L19.1176 43.1791C19.7181 43.3042 20.4187 43.4168 21.2193 43.5168C22.045 43.5919 22.7831 43.6294 23.4337 43.6294H25.2351C25.2101 43.2541 25.1976 42.8788 25.1976 42.5035C25.1976 42.1032 25.1851 41.7154 25.1601 41.3401C25.1601 40.9647 25.1476 40.627 25.1225 40.3267C25.1225 40.0015 25.11 39.7387 25.085 39.5386L28.5754 40.1391C28.9507 40.2141 29.1634 40.4018 29.2134 40.702C29.2634 41.0023 29.1383 41.2275 28.8381 41.3776L27.8998 41.7904V43.6294H32.4035L33.4919 42.3909C33.567 42.3159 33.6796 42.2783 33.8297 42.2783C34.0048 42.2783 34.1425 42.3159 34.2425 42.3909L36.0816 43.9297C36.1816 44.0047 36.2317 44.1424 36.2317 44.3425C36.2317 44.5427 36.1816 44.6678 36.0816 44.7178L35.1058 45.2808V48.5085L36.0065 47.4201C36.0816 47.345 36.2067 47.3075 36.3818 47.3075C36.582 47.2824 36.7196 47.3075 36.7946 47.3825L38.7462 49.1465C38.8964 49.2966 38.9464 49.4592 38.8964 49.6344C38.8714 49.8095 38.7462 49.8971 38.5211 49.8971H35.1058V52.1114L35.2934 55.1514C35.2934 55.3015 35.2434 55.4392 35.1433 55.5643C35.0432 55.6894 34.9306 55.7769 34.8055 55.827C34.6804 55.902 34.5178 55.9771 34.3176 56.0522C34.1425 56.1022 33.9673 56.1272 33.7922 56.1272C33.4169 56.1272 33.1166 56.0772 32.8914 55.9771C32.6913 55.852 32.5912 55.6768 32.5912 55.4517V54.9262H27.8998V58.942H32.8164L34.3927 57.0655C34.4427 56.9904 34.5553 56.9404 34.7304 56.9154C34.9306 56.8903 35.0682 56.9154 35.1433 56.9904L37.4702 59.1297C37.6453 59.3299 37.6954 59.5175 37.6203 59.6926C37.5703 59.8678 37.4202 59.9554 37.17 59.9554H27.8998V64.5717H33.9048L35.6312 62.4699C35.6812 62.3949 35.7938 62.3573 35.969 62.3573C36.1441 62.3573 36.2817 62.3949 36.3818 62.4699L38.7462 64.6843C38.9464 64.8844 39.0215 65.0721 38.9714 65.2472C38.9214 65.4224 38.7588 65.5099 38.4835 65.5099H27.8998V71.665C27.8998 71.7651 27.8748 71.8652 27.8248 71.9652C27.7747 72.0904 27.6997 72.1654 27.5996 72.1904C27.4995 72.2905 27.2993 72.3531 26.9991 72.3781C26.7239 72.4281 26.4611 72.4531 26.2109 72.4531C25.8857 72.4531 25.6355 72.4031 25.4603 72.303C25.2852 72.228 25.1976 72.1029 25.1976 71.9277L25.2351 65.5099H20.1685C19.643 65.5099 19.0425 65.535 18.367 65.585C17.6914 65.635 17.0909 65.6976 16.5655 65.7727L15.8899 64.0838C16.4904 64.2089 17.2035 64.3215 18.0292 64.4215C18.8549 64.5216 19.568 64.5717 20.1685 64.5717H25.2351V59.9554H21.9699C21.4445 59.9554 20.8315 59.9804 20.1309 60.0304C19.4304 60.0805 18.8299 60.143 18.3295 60.2181L17.6914 58.5667C18.2919 58.6668 19.005 58.7544 19.8307 58.8294C20.6564 58.9045 21.3695 58.942 21.9699 58.942H25.2351V54.9262H23.246C22.7206 54.9262 22.1076 54.9513 21.407 55.0013C20.7314 55.0263 20.1309 55.0764 19.6055 55.1514L18.9675 53.5001C19.593 53.6252 20.3061 53.7378 21.1067 53.8378C21.9324 53.9129 22.6455 53.9504 23.246 53.9504H25.2351V49.8971H21.9699C21.4445 49.8971 20.8315 49.9221 20.1309 49.9722C19.4304 49.9972 18.8299 50.0472 18.3295 50.1223L17.6914 48.4709C18.2919 48.596 19.005 48.7086 19.8307 48.8087C20.6564 48.8838 21.3695 48.9213 21.9699 48.9213H25.2351V44.5677H23.4337ZM32.5912 44.5677H27.8998V48.9213H32.5912V44.5677ZM32.5912 49.8971H27.8998V53.9504H32.5912V49.8971Z" fill="white"/>
</g>
<g filter="url(#filter1_d_94_606)">
<path d="M25.9525 21.6552L29.7056 21.0172L31.1693 18.4276C31.2694 18.2775 31.407 18.1774 31.5822 18.1273C31.7573 18.0773 31.9325 18.1023 32.1076 18.2024L34.8849 20.154C35.1601 20.3792 35.2602 20.6044 35.1851 20.8296C35.1351 21.0547 34.9599 21.1924 34.6597 21.2424L25.9525 22.7061V34.1905C25.9525 34.3156 25.9025 34.4282 25.8024 34.5283L25.5397 34.791C25.3896 34.8661 25.1644 34.9161 24.8641 34.9412C24.5639 34.9912 24.2637 35.0162 23.9634 35.0162C23.6632 35.0162 23.4255 34.9537 23.2503 34.8286C23.0752 34.7035 22.9876 34.5408 22.9876 34.3407L23.1753 28.073V23.2315L8.05032 25.8587L4.86019 26.5718L4.22217 25.033L7.75007 24.8454L23.1753 22.1807V6.9056C23.1753 5.9298 23.1252 4.96651 23.0251 4.01572C22.9251 3.03992 22.825 2.32684 22.7249 1.87646L26.6656 2.47696C27.116 2.57704 27.3412 2.77721 27.3412 3.07745C27.3662 3.3777 27.1911 3.6154 26.8157 3.79054L25.9525 4.16585V21.6552ZM13.1545 19.1031C12.7792 18.4276 12.1912 17.6269 11.3906 16.7012C10.6149 15.7754 9.82678 15.0123 9.02612 14.4118L9.66414 13.6612C10.6399 14.1115 11.6283 14.5994 12.6291 15.1249C13.6299 15.6253 14.3805 16.0756 14.8809 16.476C15.6816 17.1515 16.1945 17.7395 16.4197 18.2399C16.6699 18.7153 16.7199 19.1156 16.5698 19.4409C16.4447 19.8162 16.2195 20.0914 15.8943 20.2666C15.569 20.4167 15.3313 20.4668 15.1812 20.4167C14.8059 20.4167 14.4306 20.3041 14.0553 20.0789C13.6799 19.8287 13.3797 19.5035 13.1545 19.1031ZM15.8567 11.2217C15.4814 10.5211 14.906 9.72042 14.1303 8.81967C13.3547 7.89391 12.579 7.10577 11.8034 6.45523L12.479 5.74214C13.4798 6.16749 14.4556 6.6554 15.4064 7.20585C16.3822 7.7563 17.1203 8.21918 17.6207 8.59449C18.0711 8.9698 18.4464 9.39515 18.7466 9.87054C19.0719 10.3459 19.2345 10.7337 19.2345 11.034C19.2345 11.4844 19.0969 11.8597 18.8217 12.1599C18.5464 12.4602 18.2212 12.6103 17.8459 12.6103C17.4455 12.6103 17.0702 12.4727 16.7199 12.1975C16.3697 11.9222 16.0819 11.597 15.8567 11.2217Z" fill="white"/>
</g>
<defs>
<filter id="filter0_d_94_606" x="3.67365" y="37.662" width="44.2264" height="46.1631" filterUnits="userSpaceOnUse" color-interpolation-filters="sRGB">
<feFlood flood-opacity="0" result="BackgroundImageFix"/>
<feColorMatrix in="SourceAlpha" type="matrix" values="0 0 0 0 0 0 0 0 0 0 0 0 0 0 0 0 0 0 127 0" result="hardAlpha"/>
<feOffset dx="2.34568" dy="4.69136"/>
<feGaussianBlur stdDeviation="3.28395"/>
<feComposite in2="hardAlpha" operator="out"/>
<feColorMatrix type="matrix" values="0 0 0 0 0 0 0 0 0 0 0 0 0 0 0 0 0 0 0.15 0"/>
<feBlend mode="normal" in2="BackgroundImageFix" result="effect1_dropShadow_94_606"/>
<feBlend mode="normal" in="SourceGraphic" in2="effect1_dropShadow_94_606" result="shape"/>
</filter>
<filter id="filter1_d_94_606" x="-5.45979e-05" y="-7.86781e-05" width="44.1229" height="46.2755" filterUnits="userSpaceOnUse" color-interpolation-filters="sRGB">
<feFlood flood-opacity="0" result="BackgroundImageFix"/>
<feColorMatrix in="SourceAlpha" type="matrix" values="0 0 0 0 0 0 0 0 0 0 0 0 0 0 0 0 0 0 127 0" result="hardAlpha"/>
<feOffset dx="2.34568" dy="4.69136"/>
<feGaussianBlur stdDeviation="3.28395"/>
<feComposite in2="hardAlpha" operator="out"/>
<feColorMatrix type="matrix" values="0 0 0 0 0 0 0 0 0 0 0 0 0 0 0 0 0 0 0.15 0"/>
<feBlend mode="normal" in2="BackgroundImageFix" result="effect1_dropShadow_94_606"/>
<feBlend mode="normal" in="SourceGraphic" in2="effect1_dropShadow_94_606" result="shape"/>
</filter>
</defs>
</svg>
